<?xml version="1.0" encoding="utf-8"?>
<!-- Generator: Adobe Illustrator 19.0.0, SVG Export Plug-In . SVG Version: 6.00 Build 0)  -->
<svg version="1.1" id="Layer_1" xmlns="http://www.w3.org/2000/svg" xmlns:xlink="http://www.w3.org/1999/xlink" x="0px" y="0px"
	 viewBox="-49 141 512 512" style="enable-background:new -49 141 512 512;" xml:space="preserve">
<style type="text/css">
	.st0{clip-path:url(#SVGID_2_);fill:#40C4FF;}
	.st1{clip-path:url(#SVGID_4_);}
	.st2{fill:#439DFF;}
	.st3{clip-path:url(#SVGID_6_);}
	.st4{fill:#515251;}
	.st5{fill:#E23836;}
	.st6{fill:#333333;}
</style>
<g>
	<g>
		<g>
			<defs>
				<circle id="SVGID_1_" cx="207" cy="397" r="251.5"/>
			</defs>
			<clipPath id="SVGID_2_">
				<use xlink:href="#SVGID_1_"  style="overflow:visible;"/>
			</clipPath>
			<circle class="st0" cx="207" cy="397" r="251.5"/>
		</g>
	</g>
	<g>
		<g>
			<defs>
				<ellipse id="SVGID_3_" cx="207" cy="397" rx="251.5" ry="251.4"/>
			</defs>
			<clipPath id="SVGID_4_">
				<use xlink:href="#SVGID_3_"  style="overflow:visible;"/>
			</clipPath>
			<g class="st1">
				<path id="_x31_033-graduation_cap_4_" class="st2" d="M93.2,370.3l114.4,43.3l162.8-63.2l-165.9-48.6L40.6,350.4l49.6,18.8l0,0
					v42.7c-2.4,2.3-4.1,10.3-4.1,19.8c0,11.3,2.5,20.5,5.6,20.5c3.1,0,5.6-9.2,5.6-20.5c0-9.2-1.6-17-3.9-19.6L93.2,370.3
					L93.2,370.3z M130.7,400.1v61.4l75.8,30.7l76.8-30.7v-61.4l-75.8,28.7L130.7,400.1z"/>
				<path class="st2" d="M94.3,371.4l114.4,43.3l162.8-63.2l-165.9-48.6L41.7,351.5l49.6,18.8l0,0V413c-2.4,2.3-4.1,10.3-4.1,19.8
					c0,11.3,2.5,20.5,5.6,20.5c3.1,0,5.6-9.2,5.6-20.5c0-9.2-1.6-17-3.9-19.6L94.3,371.4L94.3,371.4z M131.8,401.2v61.4l75.8,30.7
					l76.8-30.7v-61.4l-75.8,28.7L131.8,401.2z"/>
				<path class="st2" d="M95.3,372.5l114.4,43.3l162.8-63.2l-165.9-48.6L42.7,352.5l49.6,18.8l0,0v42.7c-2.4,2.3-4.1,10.3-4.1,19.8
					c0,11.3,2.5,20.5,5.6,20.5c3.1,0,5.6-9.2,5.6-20.5c0-9.2-1.6-17-3.9-19.6L95.3,372.5L95.3,372.5z M132.8,402.2v61.4l75.8,30.7
					l76.8-30.7v-61.4l-75.8,28.7L132.8,402.2z"/>
				<path class="st2" d="M96.4,373.5l114.4,43.3l162.8-63.2l-165.9-48.6L43.8,353.6l49.6,18.8l0,0v42.7c-2.4,2.3-4.1,10.3-4.1,19.8
					c0,11.3,2.5,20.5,5.6,20.5c3.1,0,5.6-9.2,5.6-20.5c0-9.2-1.6-17-3.9-19.6V373.5z M133.9,403.3v61.4l75.8,30.7l76.8-30.7v-61.4
					l-75.8,28.7L133.9,403.3z"/>
				<path class="st2" d="M97.4,374.6l114.4,43.3l162.8-63.2L208.7,306L44.9,354.6l49.6,18.8l0,0v42.7c-2.4,2.3-4.1,10.3-4.1,19.8
					c0,11.3,2.5,20.5,5.6,20.5s5.6-9.2,5.6-20.5c0-9.2-1.6-17-3.9-19.6V374.6z M135,404.3v61.4l75.8,30.7l76.8-30.7v-61.4L211.8,433
					L135,404.3z"/>
				<path class="st2" d="M98.5,375.6L212.9,419l162.8-63.2l-165.9-48.6L45.9,355.7l49.6,18.8l0,0v42.7c-2.4,2.3-4.1,10.3-4.1,19.8
					c0,11.3,2.5,20.5,5.6,20.5c3.1,0,5.6-9.2,5.6-20.5c0-9.2-1.6-17-3.9-19.6L98.5,375.6L98.5,375.6L98.5,375.6z M136,405.4v61.4
					l75.8,30.7l76.8-30.7v-61.4l-75.8,28.7L136,405.4z"/>
				<path class="st2" d="M99.6,376.7L213.9,420l162.8-63.2l-165.9-48.6L47,356.8l49.6,18.8l0,0v42.7c-2.4,2.3-4.1,10.3-4.1,19.8
					c0,11.3,2.5,20.5,5.6,20.5c3.1,0,5.6-9.2,5.6-20.5c0-9.2-1.6-17-3.9-19.6V376.7z M137.1,406.5v61.4l75.8,30.7l76.8-30.7v-61.4
					l-75.8,28.7L137.1,406.5z"/>
				<path class="st2" d="M100.6,377.8L215,421.1l162.8-63.2l-165.9-48.6L48,357.8l49.6,18.8l0,0v42.7c-2.4,2.3-4.1,10.3-4.1,19.8
					c0,11.3,2.5,20.5,5.6,20.5c3.1,0,5.6-9.2,5.6-20.5c0-9.2-1.6-17-3.9-19.6L100.6,377.8L100.6,377.8z M138.1,407.5V469l75.8,30.7
					l76.8-30.7v-61.4l-75.8,28.7L138.1,407.5z"/>
				<path class="st2" d="M101.7,378.8l114.4,43.3l162.8-63.2L213,310.3L49.1,358.9l49.6,18.8l0,0v42.7c-2.4,2.3-4.1,10.3-4.1,19.8
					c0,11.3,2.5,20.5,5.6,20.5c3.1,0,5.6-9.2,5.6-20.5c0-9.2-1.6-17-3.9-19.6L101.7,378.8L101.7,378.8z M139.2,408.6V470l75.8,30.7
					l76.8-30.7v-61.4L216,437.3L139.2,408.6z"/>
				<path class="st2" d="M102.8,379.9l114.4,43.3L379.9,360L214,311.3L50.2,360l49.6,18.8l0,0v42.7c-2.4,2.3-4.1,10.3-4.1,19.8
					c0,11.3,2.5,20.5,5.6,20.5c3.1,0,5.6-9.2,5.6-20.5c0-9.2-1.6-17-3.9-19.6L102.8,379.9L102.8,379.9z M140.3,409.6v61.4l75.8,30.7
					l76.8-30.7v-61.4l-75.8,28.7L140.3,409.6z"/>
				<path class="st2" d="M103.8,380.9l114.4,43.3L381,361l-165.9-48.6L51.2,361l49.6,18.8l0,0v42.7c-2.4,2.3-4.1,10.3-4.1,19.8
					c0,11.3,2.5,20.5,5.6,20.5c3.1,0,5.6-9.2,5.6-20.5c0-9.2-1.6-17-3.9-19.6V380.9z M141.3,410.7v61.4l75.8,30.7l76.8-30.7v-61.4
					l-75.8,28.7L141.3,410.7z"/>
				<path class="st2" d="M104.9,382l114.4,43.3L382,362.1l-165.9-48.6L52.3,362.1l49.6,18.8l0,0v42.7c-2.4,2.3-4.1,10.3-4.1,19.8
					c0,11.3,2.5,20.5,5.6,20.5s5.6-9.2,5.6-20.5c0-9.2-1.6-17-3.9-19.6V382z M142.4,411.8v61.4l75.8,30.7l76.8-30.7v-61.4
					l-75.8,28.7L142.4,411.8z"/>
				<path class="st2" d="M105.9,383.1l114.4,43.3l162.8-63.2l-165.9-48.6L53.4,363.1l49.6,18.8l0,0v42.7c-2.4,2.3-4.1,10.3-4.1,19.8
					c0,11.3,2.5,20.5,5.6,20.5c3.1,0,5.6-9.2,5.6-20.5c0-9.2-1.6-17-3.9-19.6L105.9,383.1L105.9,383.1L105.9,383.1z M143.4,412.8
					v61.4l75.8,30.7l76.8-30.7v-61.4l-75.8,28.7L143.4,412.8z"/>
				<path class="st2" d="M107,384.1l114.4,43.3l162.8-63.2l-165.9-48.6L54.4,364.2L104,383l0,0v42.7c-2.4,2.3-4.1,10.3-4.1,19.8
					c0,11.3,2.5,20.5,5.6,20.5c3.1,0,5.6-9.2,5.6-20.5c0-9.2-1.6-17-3.9-19.6L107,384.1L107,384.1z M144.5,413.9v61.4l75.8,30.7
					l76.8-30.7v-61.4l-75.8,28.7L144.5,413.9z"/>
				<path class="st2" d="M108.1,385.2l114.4,43.3l162.8-63.2l-165.9-48.6L55.5,365.3L105,384l0,0v42.7c-2.4,2.3-4.1,10.3-4.1,19.8
					c0,11.3,2.5,20.5,5.6,20.5c3.1,0,5.6-9.2,5.6-20.5c0-9.2-1.6-17-3.9-19.6V385.2z M145.6,415v61.4l75.8,30.7l76.8-30.7V415
					l-75.8,28.7L145.6,415z"/>
				<path class="st2" d="M109.1,386.3l114.4,43.3l162.8-63.2l-165.9-48.6L56.5,366.3l49.6,18.8l0,0v42.7c-2.4,2.3-4.1,10.3-4.1,19.8
					c0,11.3,2.5,20.5,5.6,20.5c3.1,0,5.6-9.2,5.6-20.5c0-9.2-1.6-17-3.9-19.6V386.3z M146.6,416v61.4l75.8,30.7l76.8-30.7V416
					l-75.8,28.7L146.6,416z"/>
				<path class="st2" d="M110.2,387.3l114.4,43.3l162.8-63.2l-165.9-48.6L57.6,367.4l49.6,18.8l0,0v42.7c-2.4,2.3-4.1,10.3-4.1,19.8
					c0,11.3,2.5,20.5,5.6,20.5c3.1,0,5.6-9.2,5.6-20.5c0-9.2-1.6-17-3.9-19.6L110.2,387.3L110.2,387.3z M147.7,417.1v61.4l75.8,30.7
					l76.8-30.7v-61.4l-75.8,28.7L147.7,417.1z"/>
				<path class="st2" d="M111.2,388.4l114.4,43.3l162.8-63.2l-165.9-48.6L58.7,368.4l49.6,18.8l0,0V430c-2.4,2.3-4.1,10.3-4.1,19.8
					c0,11.3,2.5,20.5,5.6,20.5c3.1,0,5.6-9.2,5.6-20.5c0-9.2-1.6-17-3.9-19.6L111.2,388.4L111.2,388.4z M148.8,418.1v61.4l75.8,30.7
					l76.8-30.7v-61.4l-75.8,28.7L148.8,418.1z"/>
				<path class="st2" d="M112.3,389.4l114.4,43.3l162.8-63.2l-165.9-48.6L59.7,369.5l49.6,18.8l0,0V431c-2.4,2.3-4.1,10.3-4.1,19.8
					c0,11.3,2.5,20.5,5.6,20.5c3.1,0,5.6-9.2,5.6-20.5c0-9.2-1.6-17-3.9-19.6L112.3,389.4L112.3,389.4z M149.8,419.2v61.4l75.8,30.7
					l76.8-30.7v-61.4l-75.8,28.7L149.8,419.2z"/>
				<path class="st2" d="M113.4,390.5l114.4,43.3l162.8-63.2l-165.9-48.6L60.8,370.6l49.6,18.8l0,0v42.7c-2.4,2.3-4.1,10.3-4.1,19.8
					c0,11.3,2.5,20.5,5.6,20.5c3.1,0,5.6-9.2,5.6-20.5c0-9.2-1.6-17-3.9-19.6L113.4,390.5L113.4,390.5z M150.9,420.3v61.4l75.8,30.7
					l76.8-30.7v-61.4l-75.8,28.7L150.9,420.3z"/>
				<path class="st2" d="M114.4,391.6l114.4,43.3l162.8-63.2L225.7,323L61.8,371.6l49.6,18.8l0,0v42.7c-2.4,2.3-4.1,10.3-4.1,19.8
					c0,11.3,2.5,20.5,5.6,20.5c3.1,0,5.6-9.2,5.6-20.5c0-9.2-1.6-17-3.9-19.6L114.4,391.6L114.4,391.6z M151.9,421.3v61.4l75.8,30.7
					l76.8-30.7v-61.4L228.7,450L151.9,421.3z"/>
				<path class="st2" d="M115.5,392.6l114.4,43.3l162.8-63.2l-165.9-48.6L62.9,372.7l49.6,18.8l0,0v42.7c-2.4,2.3-4.1,10.3-4.1,19.8
					c0,11.3,2.5,20.5,5.6,20.5c3.1,0,5.6-9.2,5.6-20.5c0-9.2-1.6-17-3.9-19.6L115.5,392.6L115.5,392.6z M153,422.4v61.4l75.8,30.7
					l76.8-30.7v-61.4l-75.8,28.7L153,422.4z"/>
				<path class="st2" d="M116.6,393.7L230.9,437l162.8-63.2l-165.9-48.6L64,373.8l49.6,18.8l0,0v42.7c-2.4,2.3-4.1,10.3-4.1,19.8
					c0,11.3,2.5,20.5,5.6,20.5s5.6-9.2,5.6-20.5c0-9.2-1.6-17-3.9-19.6V393.7z M154.1,423.4v61.4l75.8,30.7l76.8-30.7v-61.4
					l-75.8,28.7L154.1,423.4z"/>
				<path class="st2" d="M117.6,394.7L232,438.1l162.8-63.2l-165.9-48.6L65,374.8l49.6,18.8l0,0v42.7c-2.4,2.3-4.1,10.3-4.1,19.8
					c0,11.3,2.5,20.5,5.6,20.5c3.1,0,5.6-9.2,5.6-20.5c0-9.2-1.6-17-3.9-19.6L117.6,394.7L117.6,394.7L117.6,394.7z M155.1,424.5
					v61.4l75.8,30.7l76.8-30.7v-61.4l-75.8,28.7L155.1,424.5z"/>
				<path class="st2" d="M118.7,395.8L233,439.1l162.8-63.2L230,327.2L66.1,375.9l49.6,18.8l0,0v42.7c-2.4,2.3-4.1,10.3-4.1,19.8
					c0,11.3,2.5,20.5,5.6,20.5c3.1,0,5.6-9.2,5.6-20.5c0-9.2-1.6-17-3.9-19.6L118.7,395.8L118.7,395.8z M156.2,425.6V487l75.8,30.7
					l76.8-30.7v-61.4L233,454.2L156.2,425.6z"/>
				<path class="st2" d="M119.7,396.9l114.4,43.3l162.8-63.2L231,328.3L67.2,376.9l49.6,18.8l0,0v42.7c-2.4,2.3-4.1,10.3-4.1,19.8
					c0,11.3,2.5,20.5,5.6,20.5c3.1,0,5.6-9.2,5.6-20.5c0-9.2-1.6-17-3.9-19.6L119.7,396.9L119.7,396.9z M157.2,426.6v61.4l75.8,30.7
					l76.8-30.7v-61.4L234,455.3L157.2,426.6z"/>
				<path class="st2" d="M120.8,397.9l114.4,43.3L398,378l-165.9-48.6L68.2,378l49.6,18.8l0,0v42.7c-2.4,2.3-4.1,10.3-4.1,19.8
					c0,11.3,2.5,20.5,5.6,20.5c3.1,0,5.6-9.2,5.6-20.5c0-9.2-1.6-17-3.9-19.6L120.8,397.9L120.8,397.9z M158.3,427.7v61.4l75.8,30.7
					l76.8-30.7v-61.4l-75.8,28.7L158.3,427.7z"/>
				<path class="st2" d="M121.9,399l114.4,43.3L399,379.1l-165.9-48.6L69.3,379.1l49.6,18.8l0,0v42.7c-2.4,2.3-4.1,10.3-4.1,19.8
					c0,11.3,2.5,20.5,5.6,20.5c3.1,0,5.6-9.2,5.6-20.5c0-9.2-1.6-17-3.9-19.6V399z M159.4,428.8v61.4l75.8,30.7l76.8-30.7v-61.4
					l-75.8,28.7L159.4,428.8z"/>
				<path class="st2" d="M122.9,400.1l114.4,43.3l162.8-63.2l-165.9-48.6L70.3,380.1l49.6,18.8l0,0v42.7c-2.4,2.3-4.1,10.3-4.1,19.8
					c0,11.3,2.5,20.5,5.6,20.5c3.1,0,5.6-9.2,5.6-20.5c0-9.2-1.6-17-3.9-19.6L122.9,400.1L122.9,400.1z M160.4,429.8v61.4l75.8,30.7
					l76.8-30.7v-61.4l-75.8,28.7L160.4,429.8z"/>
				<path class="st2" d="M124,401.1l114.4,43.3l162.8-63.2l-165.9-48.6L71.4,381.2L121,400l0,0v42.7c-2.4,2.3-4.1,10.3-4.1,19.8
					c0,11.3,2.5,20.5,5.6,20.5s5.6-9.2,5.6-20.5c0-9.2-1.6-17-3.9-19.6V401.1z M161.5,430.9v61.4l75.8,30.7l76.8-30.7v-61.4
					l-75.8,28.7L161.5,430.9z"/>
				<path class="st2" d="M125,402.2l114.4,43.3l162.8-63.2l-165.9-48.6L72.5,382.2L122,401l0,0v42.7c-2.4,2.3-4.1,10.3-4.1,19.8
					c0,11.3,2.5,20.5,5.6,20.5c3.1,0,5.6-9.2,5.6-20.5c0-9.2-1.6-17-3.9-19.6L125,402.2L125,402.2z M162.6,431.9v61.4l75.8,30.7
					l76.8-30.7v-61.4l-75.8,28.7L162.6,431.9z"/>
				<path class="st2" d="M126.1,403.2l114.4,43.3l162.8-63.2l-165.9-48.6L73.5,383.3l49.6,18.8l0,0v42.7c-2.4,2.3-4.1,10.3-4.1,19.8
					c0,11.3,2.5,20.5,5.6,20.5c3.1,0,5.6-9.2,5.6-20.5c0-9.2-1.6-17-3.9-19.6L126.1,403.2L126.1,403.2L126.1,403.2z M163.6,433v61.4
					l75.8,30.7l76.8-30.7V433l-75.8,28.7L163.6,433z"/>
				<path class="st2" d="M127.2,404.3l114.4,43.3l162.8-63.2l-165.9-48.6L74.6,384.4l49.6,18.8l0,0v42.7c-2.4,2.3-4.1,10.3-4.1,19.8
					c0,11.3,2.5,20.5,5.6,20.5c3.1,0,5.6-9.2,5.6-20.5c0-9.2-1.6-17-3.9-19.6L127.2,404.3L127.2,404.3z M164.7,434.1v61.4l75.8,30.7
					l76.8-30.7v-61.4l-75.8,28.7L164.7,434.1z"/>
				<path class="st2" d="M128.2,405.4l114.4,43.3l162.8-63.2l-165.9-48.6L75.6,385.4l49.6,18.8l0,0V447c-2.4,2.3-4.1,10.3-4.1,19.8
					c0,11.3,2.5,20.5,5.6,20.5c3.1,0,5.6-9.2,5.6-20.5c0-9.2-1.6-17-3.9-19.6L128.2,405.4L128.2,405.4z M165.7,435.1v61.4l75.8,30.7
					l76.8-30.7v-61.4l-75.8,28.7L165.7,435.1z"/>
				<path class="st2" d="M129.3,406.4l114.4,43.3l162.8-63.2l-165.9-48.6L76.7,386.5l49.6,18.8l0,0V448c-2.4,2.3-4.1,10.3-4.1,19.8
					c0,11.3,2.5,20.5,5.6,20.5c3.1,0,5.6-9.2,5.6-20.5c0-9.2-1.6-17-3.9-19.6L129.3,406.4L129.3,406.4z M166.8,436.2v61.4l75.8,30.7
					l76.8-30.7v-61.4l-75.8,28.7L166.8,436.2z"/>
				<path class="st2" d="M130.4,407.5l114.4,43.3l162.8-63.2l-165.9-48.6L77.8,387.6l49.6,18.8l0,0v42.7c-2.4,2.3-4.1,10.3-4.1,19.8
					c0,11.3,2.5,20.5,5.6,20.5c3.1,0,5.6-9.2,5.6-20.5c0-9.2-1.6-17-3.9-19.6V407.5L130.4,407.5z M167.9,437.2v61.4l75.8,30.7
					l76.8-30.7v-61.4l-75.8,28.7L167.9,437.2z"/>
				<path class="st2" d="M131.4,408.5l114.4,43.3l162.8-63.2L242.7,340L78.8,388.6l49.6,18.8l0,0v42.7c-2.4,2.3-4.1,10.3-4.1,19.8
					c0,11.3,2.5,20.5,5.6,20.5c3.1,0,5.6-9.2,5.6-20.5c0-9.2-1.6-17-3.9-19.6L131.4,408.5L131.4,408.5z M168.9,438.3v61.4l75.8,30.7
					l76.8-30.7v-61.4L245.7,467L168.9,438.3z"/>
				<path class="st2" d="M132.5,409.6l114.4,43.3l162.8-63.2L243.8,341L79.9,389.7l49.6,18.8l0,0v42.7c-2.4,2.3-4.1,10.3-4.1,19.8
					c0,11.3,2.5,20.5,5.6,20.5c3.1,0,5.6-9.2,5.6-20.5c0-9.2-1.6-17-3.9-19.6L132.5,409.6L132.5,409.6z M170,439.4v61.4l75.8,30.7
					l76.8-30.7v-61.4L246.8,468L170,439.4z"/>
				<path class="st2" d="M133.5,410.7L247.9,454l162.8-63.2l-165.9-48.6L81,390.7l49.6,18.8l0,0v42.7c-2.4,2.3-4.1,10.3-4.1,19.8
					c0,11.3,2.5,20.5,5.6,20.5c3.1,0,5.6-9.2,5.6-20.5c0-9.2-1.6-17-3.9-19.6L133.5,410.7L133.5,410.7z M171,440.4v61.4l75.8,30.7
					l76.8-30.7v-61.4l-75.8,28.7L171,440.4z"/>
				<path class="st2" d="M134.6,411.7L249,455l162.8-63.2l-165.9-48.6L82,391.8l49.6,18.8l0,0v42.7c-2.4,2.3-4.1,10.3-4.1,19.8
					c0,11.3,2.5,20.5,5.6,20.5c3.1,0,5.6-9.2,5.6-20.5c0-9.2-1.6-17-3.9-19.6L134.6,411.7L134.6,411.7z M172.1,441.5v61.4l75.8,30.7
					l76.8-30.7v-61.4l-75.8,28.7L172.1,441.5z"/>
				<path class="st2" d="M135.7,412.8L250,456.1l162.8-63.2l-165.9-48.6L83.1,392.9l49.6,18.8l0,0v42.7c-2.4,2.3-4.1,10.3-4.1,19.8
					c0,11.3,2.5,20.5,5.6,20.5s5.6-9.2,5.6-20.5c0-9.2-1.6-17-3.9-19.6V412.8z M173.2,442.6V504l75.8,30.7l76.8-30.7v-61.4
					L250,471.2L173.2,442.6z"/>
				<path class="st2" d="M136.7,413.9l114.4,43.3l162.8-63.2L248,345.3L84.1,393.9l49.6,18.8l0,0v42.7c-2.4,2.3-4.1,10.3-4.1,19.8
					c0,11.3,2.5,20.5,5.6,20.5s5.6-9.2,5.6-20.5c0-9.2-1.6-17-3.9-19.6L136.7,413.9L136.7,413.9L136.7,413.9z M174.2,443.6v61.4
					l75.8,30.7l76.8-30.7v-61.4L251,472.3L174.2,443.6z"/>
				<path class="st2" d="M137.8,414.9l114.4,43.3L414.9,395l-165.9-48.6L85.2,395l49.6,18.8l0,0v42.7c-2.4,2.3-4.1,10.3-4.1,19.8
					c0,11.3,2.5,20.5,5.6,20.5s5.6-9.2,5.6-20.5c0-9.2-1.6-17-3.9-19.6L137.8,414.9L137.8,414.9z M175.3,444.7v61.4l75.8,30.7
					l76.8-30.7v-61.4l-75.8,28.7L175.3,444.7z"/>
				<path class="st2" d="M138.8,416l114.4,43.3L416,396l-165.9-48.6L86.3,396l49.6,18.8l0,0v42.7c-2.4,2.3-4.1,10.3-4.1,19.8
					c0,11.3,2.5,20.5,5.6,20.5c3.1,0,5.6-9.2,5.6-20.5c0-9.2-1.6-17-3.9-19.6L138.8,416L138.8,416z M176.4,445.7v61.4l75.8,30.7
					l76.8-30.7v-61.4l-75.8,28.7L176.4,445.7z"/>
				<path class="st2" d="M139.9,417l114.4,43.3l162.8-63.2l-165.9-48.6L87.3,397.1l49.6,18.8l0,0v42.7c-2.4,2.3-4.1,10.3-4.1,19.8
					c0,11.3,2.5,20.5,5.6,20.5c3.1,0,5.6-9.2,5.6-20.5c0-9.2-1.6-17-3.9-19.6V417z M177.4,446.8v61.4l75.8,30.7l76.8-30.7v-61.4
					l-75.8,28.7L177.4,446.8z"/>
				<path class="st2" d="M141,418.1l114.4,43.3l162.8-63.2l-165.9-48.6L88.4,398.2l49.6,18.8l0,0v42.7c-2.4,2.3-4.1,10.3-4.1,19.8
					c0,11.3,2.5,20.5,5.6,20.5c3.1,0,5.6-9.2,5.6-20.5c0-9.2-1.6-17-3.9-19.6L141,418.1L141,418.1z M178.5,447.9v61.4l75.8,30.7
					l76.8-30.7v-61.4l-75.8,28.7L178.5,447.9z"/>
				<path class="st2" d="M142,419.2l114.4,43.3l162.8-63.2l-165.9-48.6L89.4,399.2L139,418l0,0v42.7c-2.4,2.3-4.1,10.3-4.1,19.8
					c0,11.3,2.5,20.5,5.6,20.5c3.1,0,5.6-9.2,5.6-20.5c0-9.2-1.6-17-3.9-19.6L142,419.2L142,419.2z M179.5,448.9v61.4l75.8,30.7
					l76.8-30.7v-61.4l-75.8,28.7L179.5,448.9z"/>
				<path class="st2" d="M143.1,420.2l114.4,43.3l162.8-63.2l-165.9-48.6L90.5,400.3l49.6,18.8l0,0v42.7c-2.4,2.3-4.1,10.3-4.1,19.8
					c0,11.3,2.5,20.5,5.6,20.5c3.1,0,5.6-9.2,5.6-20.5c0-9.2-1.6-17-3.9-19.6V420.2z M180.6,450v61.4l75.8,30.7l76.8-30.7V450
					l-75.8,28.7L180.6,450z"/>
				<path class="st2" d="M144.2,421.3l114.4,43.3l162.8-63.2l-165.9-48.6L91.6,401.4l49.6,18.8l0,0v42.7c-2.4,2.3-4.1,10.3-4.1,19.8
					c0,11.3,2.5,20.5,5.6,20.5s5.6-9.2,5.6-20.5c0-9.2-1.6-17-3.9-19.6L144.2,421.3L144.2,421.3z M181.7,451v61.4l75.8,30.7
					l76.8-30.7V451l-75.8,28.7L181.7,451z"/>
				<path class="st2" d="M145.2,422.3l114.4,43.3l162.8-63.2l-165.9-48.6L92.6,402.4l49.6,18.8l0,0V464c-2.4,2.3-4.1,10.3-4.1,19.8
					c0,11.3,2.5,20.5,5.6,20.5c3.1,0,5.6-9.2,5.6-20.5c0-9.2-1.6-17-3.9-19.6L145.2,422.3L145.2,422.3z M182.7,452.1v61.4l75.8,30.7
					l76.8-30.7v-61.4l-75.8,28.7L182.7,452.1z"/>
				<path class="st2" d="M146.3,423.4l114.4,43.3l162.8-63.2l-165.9-48.6L93.7,403.5l49.6,18.8l0,0V465c-2.4,2.3-4.1,10.3-4.1,19.8
					c0,11.3,2.5,20.5,5.6,20.5s5.6-9.2,5.6-20.5c0-9.2-1.6-17-3.9-19.6L146.3,423.4L146.3,423.4z M183.8,453.2v61.4l75.8,30.7
					l76.8-30.7v-61.4l-75.8,28.7L183.8,453.2z"/>
				<path class="st2" d="M147.3,424.5l114.4,43.3l162.8-63.2l-165.9-48.6L94.8,404.5l49.6,18.8l0,0v42.7c-2.4,2.3-4.1,10.3-4.1,19.8
					c0,11.3,2.5,20.5,5.6,20.5c3.1,0,5.6-9.2,5.6-20.5c0-9.2-1.6-17-3.9-19.6V424.5z M184.8,454.2v61.4l75.8,30.7l76.8-30.7v-61.4
					l-75.8,28.7L184.8,454.2z"/>
				<path class="st2" d="M148.4,425.5l114.4,43.3l162.8-63.2L259.7,357L95.8,405.6l49.6,18.8l0,0v42.7c-2.4,2.3-4.1,10.3-4.1,19.8
					c0,11.3,2.5,20.5,5.6,20.5c3.1,0,5.6-9.2,5.6-20.5c0-9.2-1.6-17-3.9-19.6L148.4,425.5L148.4,425.5z M185.9,455.3v61.4l75.8,30.7
					l76.8-30.7v-61.4L262.7,484L185.9,455.3z"/>
				<path class="st2" d="M149.5,426.6l114.4,43.3l162.8-63.2L260.7,358L96.9,406.7l49.6,18.8l0,0v42.7c-2.4,2.3-4.1,10.3-4.1,19.8
					c0,11.3,2.5,20.5,5.6,20.5s5.6-9.2,5.6-20.5c0-9.2-1.6-17-3.9-19.6L149.5,426.6L149.5,426.6z M187,456.3v61.4l75.8,30.7
					l76.8-30.7v-61.4L263.8,485L187,456.3z"/>
				<path class="st2" d="M150.5,427.7L264.9,471l162.8-63.2l-165.9-48.6L97.9,407.7l49.6,18.8l0,0v42.7c-2.4,2.3-4.1,10.3-4.1,19.8
					c0,11.3,2.5,20.5,5.6,20.5c3.1,0,5.6-9.2,5.6-20.5c0-9.2-1.6-17-3.9-19.6L150.5,427.7L150.5,427.7L150.5,427.7z M188,457.4v61.4
					l75.8,30.7l76.8-30.7v-61.4l-75.8,28.7L188,457.4z"/>
				<path class="st2" d="M151.6,428.7L265.9,472l162.8-63.2l-165.9-48.6L99,408.8l49.6,18.8l0,0v42.7c-2.4,2.3-4.1,10.3-4.1,19.8
					c0,11.3,2.5,20.5,5.6,20.5s5.6-9.2,5.6-20.5c0-9.2-1.6-17-3.9-19.6L151.6,428.7L151.6,428.7z M189.1,458.5v61.4l75.8,30.7
					l76.8-30.7v-61.4l-75.8,28.7L189.1,458.5z"/>
				<path class="st2" d="M152.6,429.8L267,473.1l162.8-63.2l-165.9-48.6l-163.9,48.6l49.6,18.8l0,0v42.7c-2.4,2.3-4.1,10.3-4.1,19.8
					c0,11.3,2.5,20.5,5.6,20.5c3.1,0,5.6-9.2,5.6-20.5c0-9.2-1.6-17-3.9-19.6L152.6,429.8L152.6,429.8z M190.2,459.5V521l75.8,30.7
					l76.8-30.7v-61.4L267,488.2L190.2,459.5z"/>
				<path class="st2" d="M153.7,430.8l114.4,43.3l162.8-63.2L265,362.3l-163.9,48.6l49.6,18.8l0,0v42.7c-2.4,2.3-4.1,10.3-4.1,19.8
					c0,11.3,2.5,20.5,5.6,20.5c3.1,0,5.6-9.2,5.6-20.5c0-9.2-1.6-17-3.9-19.6L153.7,430.8L153.7,430.8z M191.2,460.6V522l75.8,30.7
					l76.8-30.7v-61.4L268,489.3L191.2,460.6z"/>
				<path class="st2" d="M154.8,431.9l114.4,43.3L431.9,412l-165.9-48.6L102.2,412l49.6,18.8l0,0v42.7c-2.4,2.3-4.1,10.3-4.1,19.8
					c0,11.3,2.5,20.5,5.6,20.5s5.6-9.2,5.6-20.5c0-9.2-1.6-17-3.9-19.6L154.8,431.9L154.8,431.9L154.8,431.9z M192.3,461.7v61.4
					l75.8,30.7l76.8-30.7v-61.4l-75.8,28.7L192.3,461.7z"/>
				<path class="st2" d="M155.8,433l114.4,43.3L433,413l-165.9-48.6L103.2,413l49.6,18.8l0,0v42.7c-2.4,2.3-4.1,10.3-4.1,19.8
					c0,11.3,2.5,20.5,5.6,20.5c3.1,0,5.6-9.2,5.6-20.5c0-9.2-1.6-17-3.9-19.6L155.8,433L155.8,433z M193.3,462.7v61.4l75.8,30.7
					l76.8-30.7v-61.4l-75.8,28.7L193.3,462.7z"/>
				<path class="st2" d="M156.9,434l114.4,43.3l162.8-63.2l-165.9-48.6l-163.9,48.6l49.6,18.8l0,0v42.7c-2.4,2.3-4.1,10.3-4.1,19.8
					c0,11.3,2.5,20.5,5.6,20.5c3.1,0,5.6-9.2,5.6-20.5c0-9.2-1.6-17-3.9-19.6L156.9,434L156.9,434z M194.4,463.8v61.4l75.8,30.7
					l76.8-30.7v-61.4l-75.8,28.7L194.4,463.8z"/>
				<path class="st2" d="M158,435.1l114.4,43.3l162.8-63.2l-165.9-48.6l-163.9,48.6l49.6,18.8l0,0v42.7c-2.4,2.3-4.1,10.3-4.1,19.8
					c0,11.3,2.5,20.5,5.6,20.5c3.1,0,5.6-9.2,5.6-20.5c0-9.2-1.6-17-3.9-19.6V435.1L158,435.1z M195.5,464.8v61.4l75.8,30.7
					l76.8-30.7v-61.4l-75.8,28.7L195.5,464.8z"/>
				<path class="st2" d="M159,436.1l114.4,43.3l162.8-63.2l-165.9-48.6l-163.9,48.6L156,435l0,0v42.7c-2.4,2.3-4.1,10.3-4.1,19.8
					c0,11.3,2.5,20.5,5.6,20.5c3.1,0,5.6-9.2,5.6-20.5c0-9.2-1.6-17-3.9-19.6V436.1z M196.5,465.9v61.4l75.8,30.7l76.8-30.7v-61.4
					l-75.8,28.7L196.5,465.9z"/>
				<path class="st2" d="M160.1,437.2l114.4,43.3l162.8-63.2l-165.9-48.6l-163.9,48.6l49.6,18.8l0,0v42.7
					c-2.4,2.3-4.1,10.3-4.1,19.8c0,11.3,2.5,20.5,5.6,20.5c3.1,0,5.6-9.2,5.6-20.5c0-9.2-1.6-17-3.9-19.6L160.1,437.2L160.1,437.2z
					 M197.6,467v61.4l75.8,30.7l76.8-30.7V467l-75.8,28.7L197.6,467z"/>
				<path class="st2" d="M161.1,438.3l114.4,43.3l162.8-63.2l-165.9-48.6l-163.9,48.6l49.6,18.8l0,0v42.7
					c-2.4,2.3-4.1,10.3-4.1,19.8c0,11.3,2.5,20.5,5.6,20.5s5.6-9.2,5.6-20.5c0-9.2-1.6-17-3.9-19.6L161.1,438.3L161.1,438.3z
					 M198.6,468v61.4l75.8,30.7l76.8-30.7V468l-75.8,28.7L198.6,468z"/>
				<path class="st2" d="M162.2,439.3l114.4,43.3l162.8-63.2l-165.9-48.6l-163.9,48.6l49.6,18.8l0,0v42.7
					c-2.4,2.3-4.1,10.3-4.1,19.8c0,11.3,2.5,20.5,5.6,20.5c3.1,0,5.6-9.2,5.6-20.5c0-9.2-1.6-17-3.9-19.6L162.2,439.3L162.2,439.3
					L162.2,439.3z M199.7,469.1v61.4l75.8,30.7l76.8-30.7v-61.4l-75.8,28.7L199.7,469.1z"/>
				<path class="st2" d="M163.3,440.4l114.4,43.3l162.8-63.2l-165.9-48.6l-163.9,48.6l49.6,18.8l0,0V482c-2.4,2.3-4.1,10.3-4.1,19.8
					c0,11.3,2.5,20.5,5.6,20.5c3.1,0,5.6-9.2,5.6-20.5c0-9.2-1.6-17-3.9-19.6L163.3,440.4L163.3,440.4z M200.8,470.1v61.4l75.8,30.7
					l76.8-30.7v-61.4l-75.8,28.7L200.8,470.1z"/>
				<path class="st2" d="M164.3,441.5l114.4,43.3l162.8-63.2l-165.9-48.6l-163.9,48.6l49.6,18.8l0,0v42.7
					c-2.4,2.3-4.1,10.3-4.1,19.8c0,11.3,2.5,20.5,5.6,20.5c3.1,0,5.6-9.2,5.6-20.5c0-9.2-1.6-17-3.9-19.6L164.3,441.5L164.3,441.5z
					 M201.8,471.2v61.4l75.8,30.7l76.8-30.7v-61.4l-75.8,28.7L201.8,471.2z"/>
				<path class="st2" d="M165.4,442.5l114.4,43.3l162.8-63.2l-165.9-48.6l-163.9,48.6l49.6,18.8l0,0v42.7
					c-2.4,2.3-4.1,10.3-4.1,19.8c0,11.3,2.5,20.5,5.6,20.5c3.1,0,5.6-9.2,5.6-20.5c0-9.2-1.6-17-3.9-19.6L165.4,442.5L165.4,442.5
					L165.4,442.5z M202.9,472.3v61.4l75.8,30.7l76.8-30.7v-61.4l-75.8,28.7L202.9,472.3z"/>
				<path class="st2" d="M166.4,443.6l114.4,43.3l162.8-63.2L277.7,375l-163.9,48.6l49.6,18.8l0,0v42.7c-2.4,2.3-4.1,10.3-4.1,19.8
					c0,11.3,2.5,20.5,5.6,20.5c3.1,0,5.6-9.2,5.6-20.5c0-9.2-1.6-17-3.9-19.6L166.4,443.6L166.4,443.6L166.4,443.6z M204,473.3v61.4
					l75.8,30.7l76.8-30.7v-61.4L280.8,502L204,473.3z"/>
				<path class="st2" d="M167.5,444.6L281.9,488l162.8-63.2l-165.9-48.6l-163.9,48.6l49.6,18.8l0,0v42.7c-2.4,2.3-4.1,10.3-4.1,19.8
					c0,11.3,2.5,20.5,5.6,20.5c3.1,0,5.6-9.2,5.6-20.5c0-9.2-1.6-17-3.9-19.6L167.5,444.6L167.5,444.6z M205,474.4v61.4l75.8,30.7
					l76.8-30.7v-61.4l-75.8,28.7L205,474.4z"/>
				<path class="st2" d="M168.6,445.7L282.9,489l162.8-63.2l-165.9-48.6L116,425.8l49.6,18.8l0,0v42.7c-2.4,2.3-4.1,10.3-4.1,19.8
					c0,11.3,2.5,20.5,5.6,20.5c3.1,0,5.6-9.2,5.6-20.5c0-9.2-1.6-17-3.9-19.6L168.6,445.7L168.6,445.7z M206.1,475.5v61.4l75.8,30.7
					l76.8-30.7v-61.4l-75.8,28.7L206.1,475.5z"/>
				<path class="st2" d="M169.6,446.8L284,490.1l162.8-63.2l-165.9-48.6L117,426.8l49.6,18.8l0,0v42.7c-2.4,2.3-4.1,10.3-4.1,19.8
					c0,11.3,2.5,20.5,5.6,20.5c3.1,0,5.6-9.2,5.6-20.5c0-9.2-1.6-17-3.9-19.6L169.6,446.8L169.6,446.8z M207.1,476.5V538l75.8,30.7
					l76.8-30.7v-61.4l-75.8,28.7L207.1,476.5z"/>
				<path class="st2" d="M170.7,447.8L285,491.1l162.8-63.2L282,379.3l-163.9,48.6l49.6,18.8l0,0v42.7c-2.4,2.3-4.1,10.3-4.1,19.8
					c0,11.3,2.5,20.5,5.6,20.5c3.1,0,5.6-9.2,5.6-20.5c0-9.2-1.6-17-3.9-19.6V447.8z M208.2,477.6V539l75.8,30.7l76.8-30.7v-61.4
					L285,506.3L208.2,477.6z"/>
				<path class="st2" d="M171.8,448.9l114.4,43.3L448.9,429L283,380.3L119.2,429l49.6,18.8l0,0v42.7c-2.4,2.3-4.1,10.3-4.1,19.8
					c0,11.3,2.5,20.5,5.6,20.5c3.1,0,5.6-9.2,5.6-20.5c0-9.2-1.6-17-3.9-19.6L171.8,448.9L171.8,448.9z M209.3,478.6v61.4l75.8,30.7
					l76.8-30.7v-61.4l-75.8,28.7L209.3,478.6z"/>
				<path class="st2" d="M172.8,449.9l114.4,43.3L450,430l-165.9-48.6L120.2,430l49.6,18.8l0,0v42.7c-2.4,2.3-4.1,10.3-4.1,19.8
					c0,11.3,2.5,20.5,5.6,20.5s5.6-9.2,5.6-20.5c0-9.2-1.6-17-3.9-19.6L172.8,449.9L172.8,449.9z M210.3,479.7v61.4l75.8,30.7
					l76.8-30.7v-61.4l-75.8,28.7L210.3,479.7z"/>
				<path class="st2" d="M173.9,451l114.4,43.3L451,431.1l-165.9-48.6l-163.9,48.6l49.6,18.8l0,0v42.7c-2.4,2.3-4.1,10.3-4.1,19.8
					c0,11.3,2.5,20.5,5.6,20.5c3.1,0,5.6-9.2,5.6-20.5c0-9.2-1.6-17-3.9-19.6V451z M211.4,480.8v61.4l75.8,30.7l76.8-30.7v-61.4
					l-75.8,28.7L211.4,480.8z"/>
				<path class="st2" d="M174.9,452.1l114.4,43.3l162.8-63.2l-165.9-48.6l-163.9,48.6l49.6,18.8l0,0v42.7
					c-2.4,2.3-4.1,10.3-4.1,19.8c0,11.3,2.5,20.5,5.6,20.5c3.1,0,5.6-9.2,5.6-20.5c0-9.2-1.6-17-3.9-19.6L174.9,452.1L174.9,452.1
					L174.9,452.1z M212.4,481.8v61.4l75.8,30.7l76.8-30.7v-61.4l-75.8,28.7L212.4,481.8z"/>
				<path class="st2" d="M176,453.1l114.4,43.3l162.8-63.2l-165.9-48.6l-163.9,48.6L173,452l0,0v42.7c-2.4,2.3-4.1,10.3-4.1,19.8
					c0,11.3,2.5,20.5,5.6,20.5c3.1,0,5.6-9.2,5.6-20.5c0-9.2-1.6-17-3.9-19.6L176,453.1L176,453.1z M213.5,482.9v61.4l75.8,30.7
					l76.8-30.7v-61.4l-75.8,28.7L213.5,482.9z"/>
				<path class="st2" d="M177.1,454.2l114.4,43.3l162.8-63.2l-165.9-48.6l-163.9,48.6L174,453l0,0v42.7c-2.4,2.3-4.1,10.3-4.1,19.8
					c0,11.3,2.5,20.5,5.6,20.5c3.1,0,5.6-9.2,5.6-20.5c0-9.2-1.6-17-3.9-19.6L177.1,454.2L177.1,454.2z M214.6,483.9v61.4l75.8,30.7
					l76.8-30.7v-61.4l-75.8,28.7L214.6,483.9z"/>
				<path class="st2" d="M178.1,455.3l114.4,43.3l162.8-63.2l-165.9-48.6l-163.9,48.6l49.6,18.8l0,0v42.7
					c-2.4,2.3-4.1,10.3-4.1,19.8c0,11.3,2.5,20.5,5.6,20.5s5.6-9.2,5.6-20.5c0-9.2-1.6-17-3.9-19.6L178.1,455.3L178.1,455.3z
					 M215.6,485v61.4l75.8,30.7l76.8-30.7V485l-75.8,28.7L215.6,485z"/>
				<path class="st2" d="M179.2,456.3l114.4,43.3l162.8-63.2l-165.9-48.6l-163.9,48.6l49.6,18.8l0,0v42.7
					c-2.4,2.3-4.1,10.3-4.1,19.8c0,11.3,2.5,20.5,5.6,20.5c3.1,0,5.6-9.2,5.6-20.5c0-9.2-1.6-17-3.9-19.6L179.2,456.3L179.2,456.3z
					 M216.7,486.1v61.4l75.8,30.7l76.8-30.7v-61.4l-75.8,28.7L216.7,486.1z"/>
				<path class="st2" d="M180.2,457.4l114.4,43.3l162.8-63.2l-165.9-48.6l-163.9,48.6l49.6,18.8l0,0V499c-2.4,2.3-4.1,10.3-4.1,19.8
					c0,11.3,2.5,20.5,5.6,20.5s5.6-9.2,5.6-20.5c0-9.2-1.6-17-3.9-19.6L180.2,457.4L180.2,457.4z M217.8,487.1v61.4l75.8,30.7
					l76.8-30.7v-61.4l-75.8,28.7L217.8,487.1z"/>
				<path class="st2" d="M181.3,458.4l114.4,43.3l162.8-63.2l-165.9-48.6l-163.9,48.6l49.6,18.8l0,0V500c-2.4,2.3-4.1,10.3-4.1,19.8
					c0,11.3,2.5,20.5,5.6,20.5c3.1,0,5.6-9.2,5.6-20.5c0-9.2-1.6-17-3.9-19.6V458.4z M218.8,488.2v61.4l75.8,30.7l76.8-30.7v-61.4
					l-75.8,28.7L218.8,488.2z"/>
				<path class="st2" d="M182.4,459.5l114.4,43.3l162.8-63.2l-165.9-48.6l-163.9,48.6l49.6,18.8l0,0v42.7
					c-2.4,2.3-4.1,10.3-4.1,19.8c0,11.3,2.5,20.5,5.6,20.5c3.1,0,5.6-9.2,5.6-20.5c0-9.2-1.6-17-3.9-19.6V459.5L182.4,459.5z
					 M219.9,489.3v61.4l75.8,30.7l76.8-30.7v-61.4l-75.8,28.7L219.9,489.3z"/>
				<path class="st2" d="M183.4,460.6l114.4,43.3l162.8-63.2L294.7,392l-163.9,48.6l49.6,18.8l0,0v42.7c-2.4,2.3-4.1,10.3-4.1,19.8
					c0,11.3,2.5,20.5,5.6,20.5c3.1,0,5.6-9.2,5.6-20.5c0-9.2-1.6-17-3.9-19.6L183.4,460.6L183.4,460.6z M220.9,490.3v61.4l75.8,30.7
					l76.8-30.7v-61.4L297.7,519L220.9,490.3z"/>
				<path class="st2" d="M184.5,461.6l114.4,43.3l162.8-63.2l-165.9-48.6l-163.9,48.6l49.6,18.8l0,0v42.7
					c-2.4,2.3-4.1,10.3-4.1,19.8c0,11.3,2.5,20.5,5.6,20.5c3.1,0,5.6-9.2,5.6-20.5c0-9.2-1.6-17-3.9-19.6L184.5,461.6L184.5,461.6z
					 M222,491.4v61.4l75.8,30.7l76.8-30.7v-61.4l-75.8,28.7L222,491.4z"/>
				<path class="st2" d="M185.6,462.7L299.9,506l162.8-63.2l-165.9-48.6L133,442.8l49.6,18.8l0,0v42.7c-2.4,2.3-4.1,10.3-4.1,19.8
					c0,11.3,2.5,20.5,5.6,20.5c3.1,0,5.6-9.2,5.6-20.5c0-9.2-1.6-17-3.9-19.6L185.6,462.7L185.6,462.7L185.6,462.7z M223.1,492.4
					v61.4l75.8,30.7l76.8-30.7v-61.4l-75.8,28.7L223.1,492.4z"/>
				<path class="st2" d="M186.6,463.7L301,507.1l162.8-63.2l-165.9-48.6L134,443.8l49.6,18.8l0,0v42.7c-2.4,2.3-4.1,10.3-4.1,19.8
					c0,11.3,2.5,20.5,5.6,20.5c3.1,0,5.6-9.2,5.6-20.5c0-9.2-1.6-17-3.9-19.6L186.6,463.7L186.6,463.7z M224.1,493.5v61.4l75.8,30.7
					l76.8-30.7v-61.4l-75.8,28.7L224.1,493.5z"/>
				<path class="st2" d="M187.7,464.8L302,508.1l162.8-63.2L299,396.2l-163.9,48.6l49.6,18.8l0,0v42.7c-2.4,2.3-4.1,10.3-4.1,19.8
					c0,11.3,2.5,20.5,5.6,20.5s5.6-9.2,5.6-20.5c0-9.2-1.6-17-3.9-19.6L187.7,464.8L187.7,464.8z M225.2,494.6V556l75.8,30.7
					l76.8-30.7v-61.4L302,523.2L225.2,494.6z"/>
				<path class="st2" d="M188.7,465.9l114.4,43.3l162.8-63.2L300,397.3l-163.9,48.6l49.6,18.8l0,0v42.7c-2.4,2.3-4.1,10.3-4.1,19.8
					c0,11.3,2.5,20.5,5.6,20.5c3.1,0,5.6-9.2,5.6-20.5c0-9.2-1.6-17-3.9-19.6L188.7,465.9L188.7,465.9z M226.2,495.6v61.4l75.8,30.7
					l76.8-30.7v-61.4L303,524.3L226.2,495.6z"/>
				<path class="st2" d="M189.8,466.9l114.4,43.3L467,447l-165.9-48.6L137.2,447l49.6,18.8l0,0v42.7c-2.4,2.3-4.1,10.3-4.1,19.8
					c0,11.3,2.5,20.5,5.6,20.5c3.1,0,5.6-9.2,5.6-20.5c0-9.2-1.6-17-3.9-19.6L189.8,466.9L189.8,466.9z M227.3,496.7v61.4l75.8,30.7
					l76.8-30.7v-61.4l-75.8,28.7L227.3,496.7z"/>
				<path class="st2" d="M190.9,468l114.4,43.3L468,448.1l-165.9-48.6l-163.9,48.6l49.6,18.8l0,0v42.7c-2.4,2.3-4.1,10.3-4.1,19.8
					c0,11.3,2.5,20.5,5.6,20.5c3.1,0,5.6-9.2,5.6-20.5c0-9.2-1.6-17-3.9-19.6L190.9,468L190.9,468z M228.4,497.7v61.4l75.8,30.7
					l76.8-30.7v-61.4l-75.8,28.7L228.4,497.7z"/>
				<path class="st2" d="M191.9,469.1l114.4,43.3l162.8-63.2l-165.9-48.6l-163.9,48.6l49.6,18.8l0,0v42.7
					c-2.4,2.3-4.1,10.3-4.1,19.8c0,11.3,2.5,20.5,5.6,20.5c3.1,0,5.6-9.2,5.6-20.5c0-9.2-1.6-17-3.9-19.6L191.9,469.1L191.9,469.1z
					 M229.4,498.8v61.4l75.8,30.7l76.8-30.7v-61.4l-75.8,28.7L229.4,498.8z"/>
				<path class="st2" d="M193,470.1l114.4,43.3l162.8-63.2l-165.9-48.6l-163.9,48.6L190,469l0,0v42.7c-2.4,2.3-4.1,10.3-4.1,19.8
					c0,11.3,2.5,20.5,5.6,20.5c3.1,0,5.6-9.2,5.6-20.5c0-9.2-1.6-17-3.9-19.6V470.1z M230.5,499.9v61.4l75.8,30.7l76.8-30.7v-61.4
					l-75.8,28.7L230.5,499.9z"/>
				<path class="st2" d="M194,471.2l114.4,43.3l162.8-63.2l-165.9-48.6l-163.9,48.6L191,470l0,0v42.7c-2.4,2.3-4.1,10.3-4.1,19.8
					c0,11.3,2.5,20.5,5.6,20.5c3.1,0,5.6-9.2,5.6-20.5c0-9.2-1.6-17-3.9-19.6L194,471.2L194,471.2z M231.6,500.9v61.4l75.8,30.7
					l76.8-30.7v-61.4l-75.8,28.7L231.6,500.9z"/>
				<path class="st2" d="M195.1,472.2l114.4,43.3l162.8-63.2l-165.9-48.6l-163.9,48.6l49.6,18.8l0,0v42.7
					c-2.4,2.3-4.1,10.3-4.1,19.8c0,11.3,2.5,20.5,5.6,20.5c3.1,0,5.6-9.2,5.6-20.5c0-9.2-1.6-17-3.9-19.6V472.2z M232.6,502v61.4
					l75.8,30.7l76.8-30.7V502l-75.8,28.7L232.6,502z"/>
				<path class="st2" d="M196.2,473.3l114.4,43.3l162.8-63.2l-165.9-48.6l-163.9,48.6l49.6,18.8l0,0v42.7
					c-2.4,2.3-4.1,10.3-4.1,19.8c0,11.3,2.5,20.5,5.6,20.5c3.1,0,5.6-9.2,5.6-20.5c0-9.2-1.6-17-3.9-19.6L196.2,473.3L196.2,473.3z
					 M233.7,503.1v61.4l75.8,30.7l76.8-30.7v-61.4l-75.8,28.7L233.7,503.1z"/>
				<path class="st2" d="M197.2,474.4l114.4,43.3l162.8-63.2l-165.9-48.6l-163.9,48.6l49.6,18.8l0,0V516c-2.4,2.3-4.1,10.3-4.1,19.8
					c0,11.3,2.5,20.5,5.6,20.5c3.1,0,5.6-9.2,5.6-20.5c0-9.2-1.6-17-3.9-19.6L197.2,474.4L197.2,474.4z M234.7,504.1v61.4l75.8,30.7
					l76.8-30.7v-61.4l-75.8,28.7L234.7,504.1z"/>
				<path class="st2" d="M198.3,475.4l114.4,43.3l162.8-63.2l-165.9-48.6l-163.9,48.6l49.6,18.8l0,0V517c-2.4,2.3-4.1,10.3-4.1,19.8
					c0,11.3,2.5,20.5,5.6,20.5c3.1,0,5.6-9.2,5.6-20.5c0-9.2-1.6-17-3.9-19.6L198.3,475.4L198.3,475.4z M235.8,505.2v61.4l75.8,30.7
					l76.8-30.7v-61.4l-75.8,28.7L235.8,505.2z"/>
				<path class="st2" d="M199.4,476.5l114.4,43.3l162.8-63.2l-165.9-48.6l-163.9,48.6l49.6,18.8l0,0v42.7
					c-2.4,2.3-4.1,10.3-4.1,19.8c0,11.3,2.5,20.5,5.6,20.5s5.6-9.2,5.6-20.5c0-9.2-1.6-17-3.9-19.6L199.4,476.5L199.4,476.5
					L199.4,476.5z M236.9,506.2v61.4l75.8,30.7l76.8-30.7v-61.4l-75.8,28.7L236.9,506.2z"/>
				<path class="st2" d="M200.4,477.5l114.4,43.3l162.8-63.2L311.7,409l-163.9,48.6l49.6,18.8l0,0v42.7c-2.4,2.3-4.1,10.3-4.1,19.8
					c0,11.3,2.5,20.5,5.6,20.5c3.1,0,5.6-9.2,5.6-20.5c0-9.2-1.6-17-3.9-19.6V477.5z M237.9,507.3v61.4l75.8,30.7l76.8-30.7v-61.4
					L314.7,536L237.9,507.3z"/>
				<path class="st2" d="M201.5,478.6l114.4,43.3l162.8-63.2L312.8,410l-163.9,48.6l49.6,18.8l0,0v42.7c-2.4,2.3-4.1,10.3-4.1,19.8
					c0,11.3,2.5,20.5,5.6,20.5c3.1,0,5.6-9.2,5.6-20.5c0-9.2-1.6-17-3.9-19.6L201.5,478.6L201.5,478.6z M239,508.4v61.4l75.8,30.7
					l76.8-30.7v-61.4L315.8,537L239,508.4z"/>
				<path class="st2" d="M202.5,479.7L316.9,523l162.8-63.2l-165.9-48.6L150,459.7l49.6,18.8l0,0v42.7c-2.4,2.3-4.1,10.3-4.1,19.8
					c0,11.3,2.5,20.5,5.6,20.5c3.1,0,5.6-9.2,5.6-20.5c0-9.2-1.6-17-3.9-19.6L202.5,479.7L202.5,479.7z M240,509.4v61.4l75.8,30.7
					l76.8-30.7v-61.4l-75.8,28.7L240,509.4z"/>
				<path class="st2" d="M203.6,480.7L318,524l162.8-63.2l-165.9-48.6L151,460.8l49.6,18.8l0,0v42.7c-2.4,2.3-4.1,10.3-4.1,19.8
					c0,11.3,2.5,20.5,5.6,20.5c3.1,0,5.6-9.2,5.6-20.5c0-9.2-1.6-17-3.9-19.6L203.6,480.7L203.6,480.7z M241.1,510.5v61.4l75.8,30.7
					l76.8-30.7v-61.4l-75.8,28.7L241.1,510.5z"/>
				<path class="st2" d="M204.7,481.8L319,525.1l162.8-63.2l-165.9-48.6l-163.9,48.6l49.6,18.8l0,0v42.7c-2.4,2.3-4.1,10.3-4.1,19.8
					c0,11.3,2.5,20.5,5.6,20.5c3.1,0,5.6-9.2,5.6-20.5c0-9.2-1.6-17-3.9-19.6V481.8z M242.2,511.5V573l75.8,30.7l76.8-30.7v-61.4
					L319,540.2L242.2,511.5z"/>
				<path class="st2" d="M205.7,482.9l114.4,43.3l162.8-63.2L317,414.3l-163.9,48.6l49.6,18.8l0,0v42.7c-2.4,2.3-4.1,10.3-4.1,19.8
					c0,11.3,2.5,20.5,5.6,20.5c3.1,0,5.6-9.2,5.6-20.5c0-9.2-1.6-17-3.9-19.6V482.9z M243.2,512.6v61.4l75.8,30.7l76.8-30.7v-61.4
					L320,541.3L243.2,512.6z"/>
				<path class="st2" d="M206.8,483.9l114.4,43.3L483.9,464l-165.9-48.6L154.2,464l49.6,18.8l0,0v42.7c-2.4,2.3-4.1,10.3-4.1,19.8
					c0,11.3,2.5,20.5,5.6,20.5s5.6-9.2,5.6-20.5c0-9.2-1.6-17-3.9-19.6L206.8,483.9L206.8,483.9z M244.3,513.7v61.4l75.8,30.7
					l76.8-30.7v-61.4l-75.8,28.7L244.3,513.7z"/>
				<path class="st2" d="M207.8,485l114.4,43.3L485,465l-165.9-48.6L155.3,465l49.6,18.8l0,0v42.7c-2.4,2.3-4.1,10.3-4.1,19.8
					c0,11.3,2.5,20.5,5.6,20.5c3.1,0,5.6-9.2,5.6-20.5c0-9.2-1.6-17-3.9-19.6V485z M245.4,514.7v61.4l75.8,30.7l76.8-30.7v-61.4
					l-75.8,28.7L245.4,514.7z"/>
				<path class="st2" d="M208.9,486l114.4,43.3l162.8-63.2l-165.9-48.6l-163.9,48.6l49.6,18.8l0,0v42.7c-2.4,2.3-4.1,10.3-4.1,19.8
					c0,11.3,2.5,20.5,5.6,20.5c3.1,0,5.6-9.2,5.6-20.5c0-9.2-1.6-17-3.9-19.6L208.9,486L208.9,486z M246.4,515.8v61.4l75.8,30.7
					l76.8-30.7v-61.4l-75.8,28.7L246.4,515.8z"/>
				<path class="st2" d="M210,487.1l114.4,43.3l162.8-63.2l-165.9-48.6l-163.9,48.6l49.6,18.8l0,0v42.7c-2.4,2.3-4.1,10.3-4.1,19.8
					c0,11.3,2.5,20.5,5.6,20.5c3.1,0,5.6-9.2,5.6-20.5c0-9.2-1.6-17-3.9-19.6L210,487.1L210,487.1L210,487.1z M247.5,516.9v61.4
					l75.8,30.7l76.8-30.7v-61.4l-75.8,28.7L247.5,516.9z"/>
				<path class="st2" d="M211,488.2l114.4,43.3l162.8-63.2l-165.9-48.6l-163.9,48.6L208,487l0,0v42.7c-2.4,2.3-4.1,10.3-4.1,19.8
					c0,11.3,2.5,20.5,5.6,20.5c3.1,0,5.6-9.2,5.6-20.5c0-9.2-1.6-17-3.9-19.6L211,488.2L211,488.2L211,488.2z M248.5,517.9v61.4
					l75.8,30.7l76.8-30.7v-61.4l-75.8,28.7L248.5,517.9z"/>
				<path class="st2" d="M212.1,489.2l114.4,43.3l162.8-63.2l-165.9-48.6l-163.9,48.6l49.6,18.8l0,0v42.7
					c-2.4,2.3-4.1,10.3-4.1,19.8c0,11.3,2.5,20.5,5.6,20.5s5.6-9.2,5.6-20.5c0-9.2-1.6-17-3.9-19.6L212.1,489.2L212.1,489.2z
					 M249.6,519v61.4l75.8,30.7l76.8-30.7V519l-75.8,28.7L249.6,519z"/>
				<path class="st2" d="M213.2,490.3l114.4,43.3l162.8-63.2l-165.9-48.6l-163.9,48.6l49.6,18.8l0,0v42.7
					c-2.4,2.3-4.1,10.3-4.1,19.8c0,11.3,2.5,20.5,5.6,20.5c3.1,0,5.6-9.2,5.6-20.5c0-9.2-1.6-17-3.9-19.6V490.3z M250.7,520v61.4
					l75.8,30.7l76.8-30.7V520l-75.8,28.7L250.7,520z"/>
				<path class="st2" d="M214.2,491.3l114.4,43.3l162.8-63.2l-165.9-48.6l-163.9,48.6l49.6,18.8l0,0V533c-2.4,2.3-4.1,10.3-4.1,19.8
					c0,11.3,2.5,20.5,5.6,20.5c3.1,0,5.6-9.2,5.6-20.5c0-9.2-1.6-17-3.9-19.6L214.2,491.3L214.2,491.3z M251.7,521.1v61.4l75.8,30.7
					l76.8-30.7v-61.4l-75.8,28.7L251.7,521.1z"/>
				<path class="st2" d="M215.3,492.4l114.4,43.3l162.8-63.2l-165.9-48.6l-163.9,48.6l49.6,18.8l0,0V534c-2.4,2.3-4.1,10.3-4.1,19.8
					c0,11.3,2.5,20.5,5.6,20.5s5.6-9.2,5.6-20.5c0-9.2-1.6-17-3.9-19.6L215.3,492.4L215.3,492.4z M252.8,522.2v61.4l75.8,30.7
					l76.8-30.7v-61.4l-75.8,28.7L252.8,522.2z"/>
				<path class="st2" d="M216.3,493.5l114.4,43.3l162.8-63.2l-165.9-48.6l-163.9,48.6l49.6,18.8l0,0v42.7
					c-2.4,2.3-4.1,10.3-4.1,19.8c0,11.3,2.5,20.5,5.6,20.5c3.1,0,5.6-9.2,5.6-20.5c0-9.2-1.6-17-3.9-19.6L216.3,493.5L216.3,493.5
					L216.3,493.5z M253.8,523.2v61.4l75.8,30.7l76.8-30.7v-61.4l-75.8,28.7L253.8,523.2z"/>
				<path class="st2" d="M217.4,494.5l114.4,43.3l162.8-63.2L328.7,426l-163.9,48.6l49.6,18.8l0,0v42.7c-2.4,2.3-4.1,10.3-4.1,19.8
					c0,11.3,2.5,20.5,5.6,20.5s5.6-9.2,5.6-20.5c0-9.2-1.6-17-3.9-19.6L217.4,494.5L217.4,494.5z M254.9,524.3v61.4l75.8,30.7
					l76.8-30.7v-61.4L331.7,553L254.9,524.3z"/>
				<path class="st2" d="M218.5,495.6l114.4,43.3l162.8-63.2L329.7,427l-163.9,48.6l49.6,18.8l0,0v42.7c-2.4,2.3-4.1,10.3-4.1,19.8
					c0,11.3,2.5,20.5,5.6,20.5s5.6-9.2,5.6-20.5c0-9.2-1.6-17-3.9-19.6L218.5,495.6L218.5,495.6z M256,525.3v61.4l75.8,30.7
					l76.8-30.7v-61.4L332.8,554L256,525.3z"/>
				<path class="st2" d="M219.5,496.7L333.9,540l162.8-63.2l-165.9-48.6l-163.9,48.6l49.6,18.8l0,0v42.7c-2.4,2.3-4.1,10.3-4.1,19.8
					c0,11.3,2.5,20.5,5.6,20.5s5.6-9.2,5.6-20.5c0-9.2-1.6-17-3.9-19.6L219.5,496.7L219.5,496.7L219.5,496.7z M257,526.4v61.4
					l75.8,30.7l76.8-30.7v-61.4l-75.8,28.7L257,526.4z"/>
				<path class="st2" d="M220.6,497.7L334.9,541l162.8-63.2l-165.9-48.6L168,477.8l49.6,18.8l0,0v42.7c-2.4,2.3-4.1,10.3-4.1,19.8
					c0,11.3,2.5,20.5,5.6,20.5s5.6-9.2,5.6-20.5c0-9.2-1.6-17-3.9-19.6L220.6,497.7L220.6,497.7L220.6,497.7z M258.1,527.5v61.4
					l75.8,30.7l76.8-30.7v-61.4l-75.8,28.7L258.1,527.5z"/>
				<path class="st2" d="M221.6,498.8L336,542.1l162.8-63.2l-165.9-48.6l-163.9,48.6l49.6,18.8l0,0v42.7c-2.4,2.3-4.1,10.3-4.1,19.8
					c0,11.3,2.5,20.5,5.6,20.5s5.6-9.2,5.6-20.5c0-9.2-1.6-17-3.9-19.6L221.6,498.8L221.6,498.8z M259.1,528.5V590l75.8,30.7
					l76.8-30.7v-61.4L336,557.2L259.1,528.5z"/>
				<path class="st2" d="M222.7,499.8l114.4,43.3l162.8-63.2L334,431.3l-163.9,48.6l49.6,18.8l0,0v42.7c-2.4,2.3-4.1,10.3-4.1,19.8
					c0,11.3,2.5,20.5,5.6,20.5s5.6-9.2,5.6-20.5c0-9.2-1.6-17-3.9-19.6L222.7,499.8L222.7,499.8L222.7,499.8z M260.2,529.6V591
					l75.8,30.7l76.8-30.7v-61.4L337,558.3L260.2,529.6z"/>
				<path class="st2" d="M223.8,500.9l114.4,43.3L500.9,481l-165.9-48.6L171.2,481l49.6,18.8l0,0v42.7c-2.4,2.3-4.1,10.3-4.1,19.8
					c0,11.3,2.5,20.5,5.6,20.5c3.1,0,5.6-9.2,5.6-20.5c0-9.2-1.6-17-3.9-19.6L223.8,500.9L223.8,500.9z M261.3,530.7v61.4l75.8,30.7
					l76.8-30.7v-61.4l-75.8,28.7L261.3,530.7z"/>
				<path class="st2" d="M224.8,502l114.4,43.3L502,482l-165.9-48.6L172.2,482l49.6,18.8l0,0v42.7c-2.4,2.3-4.1,10.3-4.1,19.8
					c0,11.3,2.5,20.5,5.6,20.5s5.6-9.2,5.6-20.5c0-9.2-1.6-17-3.9-19.6V502z M262.3,531.7v61.4l75.8,30.7l76.8-30.7v-61.4
					l-75.8,28.7L262.3,531.7z"/>
				<path class="st2" d="M225.9,503l114.4,43.3l162.8-63.2l-165.9-48.6l-163.9,48.6l49.6,18.8l0,0v42.7c-2.4,2.3-4.1,10.3-4.1,19.8
					c0,11.3,2.5,20.5,5.6,20.5s5.6-9.2,5.6-20.5c0-9.2-1.6-17-3.9-19.6L225.9,503L225.9,503L225.9,503z M263.4,532.8v61.4l75.8,30.7
					l76.8-30.7v-61.4l-75.8,28.7L263.4,532.8z"/>
				<path class="st2" d="M227,504.1l114.4,43.3l162.8-63.2l-165.9-48.6l-163.9,48.6l49.6,18.8l0,0v42.7c-2.4,2.3-4.1,10.3-4.1,19.8
					c0,11.3,2.5,20.5,5.6,20.5s5.6-9.2,5.6-20.5c0-9.2-1.6-17-3.9-19.6L227,504.1L227,504.1z M264.5,533.8v61.4l75.8,30.7l76.8-30.7
					v-61.4l-75.8,28.7L264.5,533.8z"/>
				<path class="st2" d="M228,505.1l114.4,43.3l162.8-63.2l-165.9-48.6l-163.9,48.6L225,504l0,0v42.7c-2.4,2.3-4.1,10.3-4.1,19.8
					c0,11.3,2.5,20.5,5.6,20.5c3.1,0,5.6-9.2,5.6-20.5c0-9.2-1.6-17-3.9-19.6L228,505.1L228,505.1z M265.5,534.9v61.4l75.8,30.7
					l76.8-30.7v-61.4l-75.8,28.7L265.5,534.9z"/>
				<path class="st2" d="M229.1,506.2l114.4,43.3l162.8-63.2l-165.9-48.6l-163.9,48.6l49.6,18.8l0,0v42.7
					c-2.4,2.3-4.1,10.3-4.1,19.8c0,11.3,2.5,20.5,5.6,20.5s5.6-9.2,5.6-20.5c0-9.2-1.6-17-3.9-19.6L229.1,506.2L229.1,506.2z
					 M266.6,536v61.4l75.8,30.7l76.8-30.7V536l-75.8,28.7L266.6,536z"/>
				<path class="st2" d="M230.1,507.3l114.4,43.3l162.8-63.2l-165.9-48.6l-163.9,48.6l49.6,18.8l0,0v42.7
					c-2.4,2.3-4.1,10.3-4.1,19.8c0,11.3,2.5,20.5,5.6,20.5s5.6-9.2,5.6-20.5c0-9.2-1.6-17-3.9-19.6V507.3z M267.6,537v61.4
					l75.8,30.7l76.8-30.7V537l-75.8,28.7L267.6,537z"/>
				<path class="st2" d="M231.2,508.3l114.4,43.3l162.8-63.2l-165.9-48.6l-163.9,48.6l49.6,18.8l0,0v42.7
					c-2.4,2.3-4.1,10.3-4.1,19.8c0,11.3,2.5,20.5,5.6,20.5s5.6-9.2,5.6-20.5c0-9.2-1.6-17-3.9-19.6L231.2,508.3L231.2,508.3z
					 M268.7,538.1v61.4l75.8,30.7l76.8-30.7v-61.4l-75.8,28.7L268.7,538.1z"/>
				<path class="st2" d="M232.3,509.4l114.4,43.3l162.8-63.2l-165.9-48.6l-163.9,48.6l49.6,18.8l0,0V551c-2.4,2.3-4.1,10.3-4.1,19.8
					c0,11.3,2.5,20.5,5.6,20.5s5.6-9.2,5.6-20.5c0-9.2-1.6-17-3.9-19.6L232.3,509.4L232.3,509.4z M269.8,539.1v61.4l75.8,30.7
					l76.8-30.7v-61.4l-75.8,28.7L269.8,539.1z"/>
				<path class="st2" d="M233.3,510.5l114.4,43.3l162.8-63.2l-165.9-48.6l-163.9,48.6l49.6,18.8l0,0v42.7
					c-2.4,2.3-4.1,10.3-4.1,19.8c0,11.3,2.5,20.5,5.6,20.5s5.6-9.2,5.6-20.5c0-9.2-1.6-17-3.9-19.6L233.3,510.5L233.3,510.5z
					 M270.8,540.2v61.4l75.8,30.7l76.8-30.7v-61.4l-75.8,28.7L270.8,540.2z"/>
				<path class="st2" d="M234.4,511.5l114.4,43.3l162.8-63.2l-165.9-48.6l-163.9,48.6l49.6,18.8l0,0v42.7
					c-2.4,2.3-4.1,10.3-4.1,19.8c0,11.3,2.5,20.5,5.6,20.5c3.1,0,5.6-9.2,5.6-20.5c0-9.2-1.6-17-3.9-19.6L234.4,511.5L234.4,511.5z
					 M271.9,541.3v61.4l75.8,30.7l76.8-30.7v-61.4l-75.8,28.7L271.9,541.3z"/>
				<path class="st2" d="M235.4,512.6l114.4,43.3l162.8-63.2L346.7,444l-163.9,48.6l49.6,18.8l0,0v42.7c-2.4,2.3-4.1,10.3-4.1,19.8
					c0,11.3,2.5,20.5,5.6,20.5s5.6-9.2,5.6-20.5c0-9.2-1.6-17-3.9-19.6L235.4,512.6L235.4,512.6L235.4,512.6z M272.9,542.3v61.4
					l75.8,30.7l76.8-30.7v-61.4L349.8,571L272.9,542.3z"/>
				<path class="st2" d="M236.5,513.6L350.9,557l162.8-63.2l-165.9-48.6l-163.9,48.6l49.6,18.8l0,0v42.7c-2.4,2.3-4.1,10.3-4.1,19.8
					c0,11.3,2.5,20.5,5.6,20.5s5.6-9.2,5.6-20.5c0-9.2-1.6-17-3.9-19.6V513.6z M274,543.4v61.4l75.8,30.7l76.8-30.7v-61.4
					l-75.8,28.7L274,543.4z"/>
				<path class="st2" d="M237.6,514.7L351.9,558l162.8-63.2l-165.9-48.6L185,494.8l49.6,18.8l0,0v42.7c-2.4,2.3-4.1,10.3-4.1,19.8
					c0,11.3,2.5,20.5,5.6,20.5s5.6-9.2,5.6-20.5c0-9.2-1.6-17-3.9-19.6L237.6,514.7L237.6,514.7L237.6,514.7z M275.1,544.5v61.4
					l75.8,30.7l76.8-30.7v-61.4l-75.8,28.7L275.1,544.5z"/>
				<path class="st2" d="M238.6,515.8L353,559.1l162.8-63.2l-165.9-48.6L186,495.8l49.6,18.8l0,0v42.7c-2.4,2.3-4.1,10.3-4.1,19.8
					c0,11.3,2.5,20.5,5.6,20.5s5.6-9.2,5.6-20.5c0-9.2-1.6-17-3.9-19.6L238.6,515.8L238.6,515.8z M276.1,545.5V607l75.8,30.7
					l76.8-30.7v-61.4l-75.8,28.7L276.1,545.5z"/>
				<path class="st2" d="M239.7,516.8L354,560.1l162.8-63.2L351,448.3l-163.9,48.6l49.6,18.8l0,0v42.7c-2.4,2.3-4.1,10.3-4.1,19.8
					c0,11.3,2.5,20.5,5.6,20.5s5.6-9.2,5.6-20.5c0-9.2-1.6-17-3.9-19.6L239.7,516.8L239.7,516.8z M277.2,546.6V608l75.8,30.7
					l76.8-30.7v-61.4L354,575.3L277.2,546.6z"/>
				<path class="st2" d="M240.8,517.9l114.4,43.3L517.9,498L352,449.3L188.2,498l49.6,18.8l0,0v42.7c-2.4,2.3-4.1,10.3-4.1,19.8
					c0,11.3,2.5,20.5,5.6,20.5s5.6-9.2,5.6-20.5c0-9.2-1.6-17-3.9-19.6L240.8,517.9L240.8,517.9z M278.3,547.6v61.4l75.8,30.7
					l76.8-30.7v-61.4l-75.8,28.7L278.3,547.6z"/>
				<path class="st2" d="M241.8,518.9l114.4,43.3L519,499l-165.9-48.6L189.2,499l49.6,18.8l0,0v42.7c-2.4,2.3-4.1,10.3-4.1,19.8
					c0,11.3,2.5,20.5,5.6,20.5s5.6-9.2,5.6-20.5c0-9.2-1.6-17-3.9-19.6V518.9z M279.3,548.7v61.4l75.8,30.7l76.8-30.7v-61.4
					l-75.8,28.7L279.3,548.7z"/>
				<path class="st2" d="M242.9,520l114.4,43.3L520,500.1l-165.9-48.6l-163.9,48.6l49.6,18.8l0,0v42.7c-2.4,2.3-4.1,10.3-4.1,19.8
					c0,11.3,2.5,20.5,5.6,20.5s5.6-9.2,5.6-20.5c0-9.2-1.6-17-3.9-19.6L242.9,520L242.9,520L242.9,520z M280.4,549.8v61.4l75.8,30.7
					l76.8-30.7v-61.4l-75.8,28.7L280.4,549.8z"/>
				<path class="st2" d="M243.9,521.1l114.4,43.3l162.8-63.2l-165.9-48.6l-163.9,48.6l49.6,18.8l0,0v42.7
					c-2.4,2.3-4.1,10.3-4.1,19.8c0,11.3,2.5,20.5,5.6,20.5s5.6-9.2,5.6-20.5c0-9.2-1.6-17-3.9-19.6L243.9,521.1L243.9,521.1z
					 M281.4,550.8v61.4l75.8,30.7l76.8-30.7v-61.4l-75.8,28.7L281.4,550.8z"/>
				<path class="st2" d="M245,522.1l114.4,43.3l162.8-63.2l-165.9-48.6l-163.9,48.6L242,521l0,0v42.7c-2.4,2.3-4.1,10.3-4.1,19.8
					c0,11.3,2.5,20.5,5.6,20.5s5.6-9.2,5.6-20.5c0-9.2-1.6-17-3.9-19.6L245,522.1L245,522.1z M282.5,551.9v61.4l75.8,30.7l76.8-30.7
					v-61.4l-75.8,28.7L282.5,551.9z"/>
				<path class="st2" d="M246.1,523.2l114.4,43.3l162.8-63.2l-165.9-48.6l-163.9,48.6L243,522l0,0v42.7c-2.4,2.3-4.1,10.3-4.1,19.8
					c0,11.3,2.5,20.5,5.6,20.5s5.6-9.2,5.6-20.5c0-9.2-1.6-17-3.9-19.6L246.1,523.2L246.1,523.2L246.1,523.2z M283.6,552.9v61.4
					l75.8,30.7l76.8-30.7v-61.4l-75.8,28.7L283.6,552.9z"/>
				<path class="st2" d="M247.1,524.3l114.4,43.3l162.8-63.2l-165.9-48.6l-163.9,48.6l49.6,18.8l0,0v42.7
					c-2.4,2.3-4.1,10.3-4.1,19.8c0,11.3,2.5,20.5,5.6,20.5s5.6-9.2,5.6-20.5c0-9.2-1.6-17-3.9-19.6L247.1,524.3L247.1,524.3z
					 M284.6,554v61.4l75.8,30.7l76.8-30.7V554l-75.8,28.7L284.6,554z"/>
				<path class="st2" d="M248.2,525.3l114.4,43.3l162.8-63.2l-165.9-48.6l-163.9,48.6l49.6,18.8l0,0v42.7
					c-2.4,2.3-4.1,10.3-4.1,19.8c0,11.3,2.5,20.5,5.6,20.5c3.1,0,5.6-9.2,5.6-20.5c0-9.2-1.6-17-3.9-19.6L248.2,525.3L248.2,525.3
					L248.2,525.3z M285.7,555.1v61.4l75.8,30.7l76.8-30.7v-61.4l-75.8,28.7L285.7,555.1z"/>
				<path class="st2" d="M249.2,526.4l114.4,43.3l162.8-63.2l-165.9-48.6l-163.9,48.6l49.6,18.8l0,0V568c-2.4,2.3-4.1,10.3-4.1,19.8
					c0,11.3,2.5,20.5,5.6,20.5s5.6-9.2,5.6-20.5c0-9.2-1.6-17-3.9-19.6L249.2,526.4L249.2,526.4L249.2,526.4z M286.7,556.1v61.4
					l75.8,30.7l76.8-30.7v-61.4l-75.8,28.7L286.7,556.1z"/>
				<path class="st2" d="M250.3,527.4l114.4,43.3l162.8-63.2l-165.9-48.6l-163.9,48.6l49.6,18.8l0,0V569c-2.4,2.3-4.1,10.3-4.1,19.8
					c0,11.3,2.5,20.5,5.6,20.5s5.6-9.2,5.6-20.5c0-9.2-1.6-17-3.9-19.6L250.3,527.4L250.3,527.4L250.3,527.4z M287.8,557.2v61.4
					l75.8,30.7l76.8-30.7v-61.4l-75.8,28.7L287.8,557.2z"/>
				<path class="st2" d="M251.4,528.5l114.4,43.3l162.8-63.2l-165.9-48.6l-163.9,48.6l49.6,18.8l0,0v42.7
					c-2.4,2.3-4.1,10.3-4.1,19.8c0,11.3,2.5,20.5,5.6,20.5s5.6-9.2,5.6-20.5c0-9.2-1.6-17-3.9-19.6V528.5z M288.9,558.3v61.4
					l75.8,30.7l76.8-30.7v-61.4l-75.8,28.7L288.9,558.3z"/>
				<path class="st2" d="M252.4,529.6l114.4,43.3l162.8-63.2L363.7,461l-163.9,48.6l49.6,18.8l0,0v42.7c-2.4,2.3-4.1,10.3-4.1,19.8
					c0,11.3,2.5,20.5,5.6,20.5c3.1,0,5.6-9.2,5.6-20.5c0-9.2-1.6-17-3.9-19.6L252.4,529.6L252.4,529.6L252.4,529.6z M289.9,559.3
					v61.4l75.8,30.7l76.8-30.7v-61.4L366.7,588L289.9,559.3z"/>
				<path class="st2" d="M253.5,530.6l114.4,43.3l162.8-63.2l-165.9-48.6l-163.9,48.6l49.6,18.8l0,0v42.7
					c-2.4,2.3-4.1,10.3-4.1,19.8c0,11.3,2.5,20.5,5.6,20.5c3.1,0,5.6-9.2,5.6-20.5c0-9.2-1.6-17-3.9-19.6V530.6z M291,560.4v61.4
					l75.8,30.7l76.8-30.7v-61.4l-75.8,28.7L291,560.4z"/>
				<path class="st2" d="M254.6,531.7L368.9,575l162.8-63.2l-165.9-48.6L202,511.8l49.6,18.8l0,0v42.7c-2.4,2.3-4.1,10.3-4.1,19.8
					c0,11.3,2.5,20.5,5.6,20.5c3.1,0,5.6-9.2,5.6-20.5c0-9.2-1.6-17-3.9-19.6L254.6,531.7L254.6,531.7z M292.1,561.4v61.4l75.8,30.7
					l76.8-30.7v-61.4l-75.8,28.7L292.1,561.4z"/>
				<path class="st2" d="M255.6,532.7L370,576.1l162.8-63.2l-165.9-48.6L203,512.8l49.6,18.8l0,0v42.7c-2.4,2.3-4.1,10.3-4.1,19.8
					c0,11.3,2.5,20.5,5.6,20.5c3.1,0,5.6-9.2,5.6-20.5c0-9.2-1.6-17-3.9-19.6L255.6,532.7L255.6,532.7z M293.1,562.5v61.4l75.8,30.7
					l76.8-30.7v-61.4l-75.8,28.7L293.1,562.5z"/>
				<path class="st2" d="M256.7,533.8L371,577.1l162.8-63.2L368,465.2l-163.9,48.6l49.6,18.8l0,0v42.7c-2.4,2.3-4.1,10.3-4.1,19.8
					c0,11.3,2.5,20.5,5.6,20.5s5.6-9.2,5.6-20.5c0-9.2-1.6-17-3.9-19.6L256.7,533.8L256.7,533.8z M294.2,563.6V625l75.8,30.7
					l76.8-30.7v-61.4L371,592.2L294.2,563.6z"/>
				<path class="st2" d="M257.7,534.9l114.4,43.3l162.8-63.2L369,466.3l-163.9,48.6l49.6,18.8l0,0v42.7c-2.4,2.3-4.1,10.3-4.1,19.8
					c0,11.3,2.5,20.5,5.6,20.5s5.6-9.2,5.6-20.5c0-9.2-1.6-17-3.9-19.6L257.7,534.9L257.7,534.9L257.7,534.9z M295.2,564.6v61.4
					l75.8,30.7l76.8-30.7v-61.4L372,593.3L295.2,564.6z"/>
				<path class="st2" d="M258.8,535.9l114.4,43.3L536,516l-165.9-48.6L206.2,516l49.6,18.8l0,0v42.7c-2.4,2.3-4.1,10.3-4.1,19.8
					c0,11.3,2.5,20.5,5.6,20.5c3.1,0,5.6-9.2,5.6-20.5c0-9.2-1.6-17-3.9-19.6L258.8,535.9L258.8,535.9z M296.3,565.7v61.4l75.8,30.7
					l76.8-30.7v-61.4l-75.8,28.7L296.3,565.7z"/>
				<path class="st2" d="M259.9,537l114.4,43.3L537,517.1l-165.9-48.6l-163.9,48.6l49.6,18.8l0,0v42.7c-2.4,2.3-4.1,10.3-4.1,19.8
					c0,11.3,2.5,20.5,5.6,20.5s5.6-9.2,5.6-20.5c0-9.2-1.6-17-3.9-19.6L259.9,537L259.9,537z M297.4,566.7v61.4l75.8,30.7l76.8-30.7
					v-61.4l-75.8,28.7L297.4,566.7z"/>
				<path class="st2" d="M260.9,538.1l114.4,43.3l162.8-63.2l-165.9-48.6l-163.9,48.6l49.6,18.8l0,0v42.7
					c-2.4,2.3-4.1,10.3-4.1,19.8c0,11.3,2.5,20.5,5.6,20.5s5.6-9.2,5.6-20.5c0-9.2-1.6-17-3.9-19.6L260.9,538.1L260.9,538.1
					L260.9,538.1z M298.4,567.8v61.4l75.8,30.7l76.8-30.7v-61.4l-75.8,28.7L298.4,567.8z"/>
				<path class="st2" d="M262,539.1l114.4,43.3l162.8-63.2l-165.9-48.6l-163.9,48.6L259,538l0,0v42.7c-2.4,2.3-4.1,10.3-4.1,19.8
					c0,11.3,2.5,20.5,5.6,20.5s5.6-9.2,5.6-20.5c0-9.2-1.6-17-3.9-19.6L262,539.1L262,539.1L262,539.1z M299.5,568.9v61.4l75.8,30.7
					l76.8-30.7v-61.4l-75.8,28.7L299.5,568.9z"/>
				<path class="st2" d="M263,540.2l114.4,43.3l162.8-63.2l-165.9-48.6l-163.9,48.6L260,539l0,0v42.7c-2.4,2.3-4.1,10.3-4.1,19.8
					c0,11.3,2.5,20.5,5.6,20.5s5.6-9.2,5.6-20.5c0-9.2-1.6-17-3.9-19.6V540.2z M300.5,569.9v61.4l75.8,30.7l76.8-30.7v-61.4
					l-75.8,28.7L300.5,569.9z"/>
				<path class="st2" d="M264.1,541.2l114.4,43.3l162.8-63.2l-165.9-48.6l-163.9,48.6l49.6,18.8l0,0v42.7
					c-2.4,2.3-4.1,10.3-4.1,19.8c0,11.3,2.5,20.5,5.6,20.5s5.6-9.2,5.6-20.5c0-9.2-1.6-17-3.9-19.6V541.2z M301.6,571v61.4
					l75.8,30.7l76.8-30.7V571l-75.8,28.7L301.6,571z"/>
				<path class="st2" d="M265.2,542.3l114.4,43.3l162.8-63.2l-165.9-48.6l-163.9,48.6l49.6,18.8l0,0v42.7
					c-2.4,2.3-4.1,10.3-4.1,19.8c0,11.3,2.5,20.5,5.6,20.5s5.6-9.2,5.6-20.5c0-9.2-1.6-17-3.9-19.6L265.2,542.3L265.2,542.3
					L265.2,542.3z M302.7,572.1v61.4l75.8,30.7l76.8-30.7v-61.4l-75.8,28.7L302.7,572.1z"/>
				<path class="st2" d="M266.2,543.4l114.4,43.3l162.8-63.2l-165.9-48.6l-163.9,48.6l49.6,18.8l0,0V585c-2.4,2.3-4.1,10.3-4.1,19.8
					c0,11.3,2.5,20.5,5.6,20.5s5.6-9.2,5.6-20.5c0-9.2-1.6-17-3.9-19.6V543.4z M303.7,573.1v61.4l75.8,30.7l76.8-30.7v-61.4
					l-75.8,28.7L303.7,573.1z"/>
				<path class="st2" d="M267.3,544.4l114.4,43.3l162.8-63.2l-165.9-48.6l-163.9,48.6l49.6,18.8l0,0V586c-2.4,2.3-4.1,10.3-4.1,19.8
					c0,11.3,2.5,20.5,5.6,20.5s5.6-9.2,5.6-20.5c0-9.2-1.6-17-3.9-19.6L267.3,544.4L267.3,544.4z M304.8,574.2v61.4l75.8,30.7
					l76.8-30.7v-61.4l-75.8,28.7L304.8,574.2z"/>
				<path class="st2" d="M268.4,545.5l114.4,43.3l162.8-63.2l-165.9-48.6l-163.9,48.6l49.6,18.8l0,0v42.7
					c-2.4,2.3-4.1,10.3-4.1,19.8c0,11.3,2.5,20.5,5.6,20.5s5.6-9.2,5.6-20.5c0-9.2-1.6-17-3.9-19.6L268.4,545.5L268.4,545.5z
					 M305.9,575.2v61.4l75.8,30.7l76.8-30.7v-61.4l-75.8,28.7L305.9,575.2z"/>
				<path class="st2" d="M269.4,546.5l114.4,43.3l162.8-63.2L380.7,478l-163.9,48.6l49.6,18.8l0,0v42.7c-2.4,2.3-4.1,10.3-4.1,19.8
					c0,11.3,2.5,20.5,5.6,20.5s5.6-9.2,5.6-20.5c0-9.2-1.6-17-3.9-19.6L269.4,546.5L269.4,546.5z M306.9,576.3v61.4l75.8,30.7
					l76.8-30.7v-61.4L383.7,605L306.9,576.3z"/>
				<path class="st2" d="M270.5,547.6l114.4,43.3l162.8-63.2L381.8,479l-163.9,48.6l49.6,18.8l0,0v42.7c-2.4,2.3-4.1,10.3-4.1,19.8
					c0,11.3,2.5,20.5,5.6,20.5c3.1,0,5.6-9.2,5.6-20.5c0-9.2-1.6-17-3.9-19.6L270.5,547.6L270.5,547.6z M308,577.4v61.4l75.8,30.7
					l76.8-30.7v-61.4L384.8,606L308,577.4z"/>
				<path class="st2" d="M271.5,548.7L385.9,592l162.8-63.2l-165.9-48.6L219,528.7l49.6,18.8l0,0v42.7c-2.4,2.3-4.1,10.3-4.1,19.8
					c0,11.3,2.5,20.5,5.6,20.5s5.6-9.2,5.6-20.5c0-9.2-1.6-17-3.9-19.6L271.5,548.7L271.5,548.7z M309,578.4v61.4l75.8,30.7
					l76.8-30.7v-61.4l-75.8,28.7L309,578.4z"/>
				<path class="st2" d="M272.6,549.7L387,593l162.8-63.2l-165.9-48.6L220,529.8l49.6,18.8l0,0v42.7c-2.4,2.3-4.1,10.3-4.1,19.8
					c0,11.3,2.5,20.5,5.6,20.5s5.6-9.2,5.6-20.5c0-9.2-1.6-17-3.9-19.6L272.6,549.7L272.6,549.7z M310.1,579.5v61.4l75.8,30.7
					l76.8-30.7v-61.4l-75.8,28.7L310.1,579.5z"/>
				<path class="st2" d="M273.7,550.8L388,594.1l162.8-63.2l-165.9-48.6l-163.9,48.6l49.6,18.8l0,0v42.7c-2.4,2.3-4.1,10.3-4.1,19.8
					c0,11.3,2.5,20.5,5.6,20.5s5.6-9.2,5.6-20.5c0-9.2-1.6-17-3.9-19.6L273.7,550.8L273.7,550.8L273.7,550.8z M311.2,580.5V642
					l75.8,30.7l76.8-30.7v-61.4L388,609.2L311.2,580.5z"/>
				<path class="st2" d="M274.7,551.9l114.4,43.3l162.8-63.2L386,483.3l-163.9,48.6l49.6,18.8l0,0v42.7c-2.4,2.3-4.1,10.3-4.1,19.8
					c0,11.3,2.5,20.5,5.6,20.5s5.6-9.2,5.6-20.5c0-9.2-1.6-17-3.9-19.6L274.7,551.9L274.7,551.9z M312.2,581.6V643l75.8,30.7
					l76.8-30.7v-61.4L389,610.3L312.2,581.6z"/>
				<path class="st2" d="M275.8,552.9l114.4,43.3L552.9,533l-165.9-48.6L223.2,533l49.6,18.8l0,0v42.7c-2.4,2.3-4.1,10.3-4.1,19.8
					c0,11.3,2.5,20.5,5.6,20.5s5.6-9.2,5.6-20.5c0-9.2-1.6-17-3.9-19.6L275.8,552.9L275.8,552.9z M313.3,582.7v61.4l75.8,30.7
					l76.8-30.7v-61.4l-75.8,28.7L313.3,582.7z"/>
				<path class="st2" d="M276.8,554l114.4,43.3L554,534l-165.9-48.6L224.3,534l49.6,18.8l0,0v42.7c-2.4,2.3-4.1,10.3-4.1,19.8
					c0,11.3,2.5,20.5,5.6,20.5s5.6-9.2,5.6-20.5c0-9.2-1.6-17-3.9-19.6L276.8,554L276.8,554L276.8,554z M314.3,583.7v61.4l75.8,30.7
					l76.8-30.7v-61.4l-75.8,28.7L314.3,583.7z"/>
				<path class="st2" d="M277.9,555l114.4,43.3l162.8-63.2l-165.9-48.6l-163.9,48.6l49.6,18.8l0,0v42.7c-2.4,2.3-4.1,10.3-4.1,19.8
					c0,11.3,2.5,20.5,5.6,20.5s5.6-9.2,5.6-20.5c0-9.2-1.6-17-3.9-19.6V555z M315.4,584.8v61.4l75.8,30.7l76.8-30.7v-61.4
					l-75.8,28.7L315.4,584.8z"/>
				<path class="st2" d="M279,556.1l114.4,43.3l162.8-63.2l-165.9-48.6l-163.9,48.6l49.6,18.8l0,0v42.7c-2.4,2.3-4.1,10.3-4.1,19.8
					c0,11.3,2.5,20.5,5.6,20.5c3.1,0,5.6-9.2,5.6-20.5c0-9.2-1.6-17-3.9-19.6L279,556.1L279,556.1L279,556.1z M316.5,585.9v61.4
					l75.8,30.7l76.8-30.7v-61.4l-75.8,28.7L316.5,585.9z"/>
				<path class="st2" d="M280,557.2l114.4,43.3l162.8-63.2l-165.9-48.6l-163.9,48.6L277,556l0,0v42.7c-2.4,2.3-4.1,10.3-4.1,19.8
					c0,11.3,2.5,20.5,5.6,20.5s5.6-9.2,5.6-20.5c0-9.2-1.6-17-3.9-19.6V557.2z M317.5,586.9v61.4l75.8,30.7l76.8-30.7v-61.4
					l-75.8,28.7L317.5,586.9z"/>
				<path class="st2" d="M281.1,558.2l114.4,43.3l162.8-63.2l-165.9-48.6l-163.9,48.6l49.6,18.8l0,0v42.7
					c-2.4,2.3-4.1,10.3-4.1,19.8c0,11.3,2.5,20.5,5.6,20.5s5.6-9.2,5.6-20.5c0-9.2-1.6-17-3.9-19.6L281.1,558.2L281.1,558.2z
					 M318.6,588v61.4l75.8,30.7l76.8-30.7V588l-75.8,28.7L318.6,588z"/>
				<path class="st2" d="M282.2,559.3l114.4,43.3l162.8-63.2l-165.9-48.6l-163.9,48.6l49.6,18.8l0,0v42.7
					c-2.4,2.3-4.1,10.3-4.1,19.8c0,11.3,2.5,20.5,5.6,20.5c3.1,0,5.6-9.2,5.6-20.5c0-9.2-1.6-17-3.9-19.6L282.2,559.3L282.2,559.3z
					 M319.7,589v61.4l75.8,30.7l76.8-30.7V589l-75.8,28.7L319.7,589z"/>
				<path class="st2" d="M283.2,560.3l114.4,43.3l162.8-63.2l-165.9-48.6l-163.9,48.6l49.6,18.8l0,0V602c-2.4,2.3-4.1,10.3-4.1,19.8
					c0,11.3,2.5,20.5,5.6,20.5s5.6-9.2,5.6-20.5c0-9.2-1.6-17-3.9-19.6L283.2,560.3L283.2,560.3L283.2,560.3z M320.7,590.1v61.4
					l75.8,30.7l76.8-30.7v-61.4l-75.8,28.7L320.7,590.1z"/>
				<path class="st2" d="M284.3,561.4l114.4,43.3l162.8-63.2l-165.9-48.6l-163.9,48.6l49.6,18.8l0,0V603c-2.4,2.3-4.1,10.3-4.1,19.8
					c0,11.3,2.5,20.5,5.6,20.5s5.6-9.2,5.6-20.5c0-9.2-1.6-17-3.9-19.6L284.3,561.4L284.3,561.4z M321.8,591.2v61.4l75.8,30.7
					l76.8-30.7v-61.4l-75.8,28.7L321.8,591.2z"/>
				<path class="st2" d="M285.3,562.5l114.4,43.3l162.8-63.2l-165.9-48.6l-163.9,48.6l49.6,18.8l0,0v42.7
					c-2.4,2.3-4.1,10.3-4.1,19.8c0,11.3,2.5,20.5,5.6,20.5s5.6-9.2,5.6-20.5c0-9.2-1.6-17-3.9-19.6L285.3,562.5L285.3,562.5z
					 M322.8,592.2v61.4l75.8,30.7l76.8-30.7v-61.4l-75.8,28.7L322.8,592.2z"/>
				<path class="st2" d="M286.4,563.5l114.4,43.3l162.8-63.2L397.7,495l-163.9,48.6l49.6,18.8l0,0v42.7c-2.4,2.3-4.1,10.3-4.1,19.8
					c0,11.3,2.5,20.5,5.6,20.5s5.6-9.2,5.6-20.5c0-9.2-1.6-17-3.9-19.6L286.4,563.5L286.4,563.5z M323.9,593.3v61.4l75.8,30.7
					l76.8-30.7v-61.4L400.7,622L323.9,593.3z"/>
				<path class="st2" d="M287.5,564.6l114.4,43.3l162.8-63.2L398.7,496l-163.9,48.6l49.6,18.8l0,0v42.7c-2.4,2.3-4.1,10.3-4.1,19.8
					c0,11.3,2.5,20.5,5.6,20.5s5.6-9.2,5.6-20.5c0-9.2-1.6-17-3.9-19.6L287.5,564.6L287.5,564.6L287.5,564.6z M325,594.3v61.4
					l75.8,30.7l76.8-30.7v-61.4L401.8,623L325,594.3z"/>
				<path class="st2" d="M288.5,565.7L402.9,609l162.8-63.2l-165.9-48.6l-163.9,48.6l49.6,18.8l0,0v42.7c-2.4,2.3-4.1,10.3-4.1,19.8
					c0,11.3,2.5,20.5,5.6,20.5s5.6-9.2,5.6-20.5c0-9.2-1.6-17-3.9-19.6L288.5,565.7L288.5,565.7z M326,595.4v61.4l75.8,30.7
					l76.8-30.7v-61.4l-75.8,28.7L326,595.4z"/>
				<path class="st2" d="M289.6,566.7L403.9,610l162.8-63.2l-165.9-48.6L237,546.8l49.6,18.8l0,0v42.7c-2.4,2.3-4.1,10.3-4.1,19.8
					c0,11.3,2.5,20.5,5.6,20.5s5.6-9.2,5.6-20.5c0-9.2-1.6-17-3.9-19.6L289.6,566.7L289.6,566.7z M327.1,596.5v61.4l75.8,30.7
					l76.8-30.7v-61.4l-75.8,28.7L327.1,596.5z"/>
				<path class="st2" d="M290.6,567.8L405,611.1l162.8-63.2l-165.9-48.6l-163.9,48.6l49.6,18.8l0,0v42.7c-2.4,2.3-4.1,10.3-4.1,19.8
					c0,11.3,2.5,20.5,5.6,20.5c3.1,0,5.6-9.2,5.6-20.5c0-9.2-1.6-17-3.9-19.6L290.6,567.8L290.6,567.8L290.6,567.8z M328.1,597.5
					V659l75.8,30.7l76.8-30.7v-61.4L405,626.2L328.1,597.5z"/>
				<path class="st2" d="M291.7,568.8l114.4,43.3l162.8-63.2L403,500.3l-163.9,48.6l49.6,18.8l0,0v42.7c-2.4,2.3-4.1,10.3-4.1,19.8
					c0,11.3,2.5,20.5,5.6,20.5s5.6-9.2,5.6-20.5c0-9.2-1.6-17-3.9-19.6L291.7,568.8L291.7,568.8L291.7,568.8z M329.2,598.6V660
					l75.8,30.7l76.8-30.7v-61.4L406,627.3L329.2,598.6z"/>
				<path class="st2" d="M292.8,569.9l114.4,43.3L569.9,550l-165.9-48.6L240.2,550l49.6,18.8l0,0v42.7c-2.4,2.3-4.1,10.3-4.1,19.8
					c0,11.3,2.5,20.5,5.6,20.5s5.6-9.2,5.6-20.5c0-9.2-1.6-17-3.9-19.6L292.8,569.9L292.8,569.9z M330.3,599.7v61.4l75.8,30.7
					l76.8-30.7v-61.4l-75.8,28.7L330.3,599.7z"/>
				<path class="st2" d="M293.8,571l114.4,43.3L571,551l-165.9-48.6L241.2,551l49.6,18.8l0,0v42.7c-2.4,2.3-4.1,10.3-4.1,19.8
					c0,11.3,2.5,20.5,5.6,20.5s5.6-9.2,5.6-20.5c0-9.2-1.6-17-3.9-19.6L293.8,571L293.8,571L293.8,571z M331.3,600.7v61.4l75.8,30.7
					l76.8-30.7v-61.4l-75.8,28.7L331.3,600.7z"/>
				<path class="st2" d="M294.9,572l114.4,43.3l162.8-63.2l-165.9-48.6l-163.9,48.6l49.6,18.8l0,0v42.7c-2.4,2.3-4.1,10.3-4.1,19.8
					c0,11.3,2.5,20.5,5.6,20.5s5.6-9.2,5.6-20.5c0-9.2-1.6-17-3.9-19.6V572z M332.4,601.8v61.4l75.8,30.7l76.8-30.7v-61.4
					l-75.8,28.7L332.4,601.8z"/>
				<path class="st2" d="M296,573.1l114.4,43.3l162.8-63.2l-165.9-48.6l-163.9,48.6l49.6,18.8l0,0v42.7c-2.4,2.3-4.1,10.3-4.1,19.8
					c0,11.3,2.5,20.5,5.6,20.5s5.6-9.2,5.6-20.5c0-9.2-1.6-17-3.9-19.6L296,573.1L296,573.1z M333.5,602.8v61.4l75.8,30.7l76.8-30.7
					v-61.4l-75.8,28.7L333.5,602.8z"/>
				<path class="st2" d="M297,574.1l114.4,43.3l162.8-63.2l-165.9-48.6l-163.9,48.6L294,573l0,0v42.7c-2.4,2.3-4.1,10.3-4.1,19.8
					c0,11.3,2.5,20.5,5.6,20.5c3.1,0,5.6-9.2,5.6-20.5c0-9.2-1.6-17-3.9-19.6L297,574.1L297,574.1z M334.5,603.9v61.4l75.8,30.7
					l76.8-30.7v-61.4l-75.8,28.7L334.5,603.9z"/>
				<path class="st2" d="M298.1,575.2l114.4,43.3l162.8-63.2l-165.9-48.6l-163.9,48.6L295,574l0,0v42.7c-2.4,2.3-4.1,10.3-4.1,19.8
					c0,11.3,2.5,20.5,5.6,20.5s5.6-9.2,5.6-20.5c0-9.2-1.6-17-3.9-19.6L298.1,575.2L298.1,575.2z M335.6,605v61.4l75.8,30.7
					l76.8-30.7V605l-75.8,28.7L335.6,605z"/>
				<path class="st2" d="M299.1,576.3l114.4,43.3l162.8-63.2l-165.9-48.6l-163.9,48.6l49.6,18.8l0,0v42.7
					c-2.4,2.3-4.1,10.3-4.1,19.8c0,11.3,2.5,20.5,5.6,20.5s5.6-9.2,5.6-20.5c0-9.2-1.6-17-3.9-19.6L299.1,576.3L299.1,576.3
					L299.1,576.3z M336.6,606v61.4l75.8,30.7l76.8-30.7V606l-75.8,28.7L336.6,606z"/>
				<path class="st2" d="M300.2,577.3l114.4,43.3l162.8-63.2l-165.9-48.6l-163.9,48.6l49.6,18.8l0,0v42.7
					c-2.4,2.3-4.1,10.3-4.1,19.8c0,11.3,2.5,20.5,5.6,20.5s5.6-9.2,5.6-20.5c0-9.2-1.6-17-3.9-19.6L300.2,577.3L300.2,577.3z
					 M337.7,607.1v61.4l75.8,30.7l76.8-30.7v-61.4l-75.8,28.7L337.7,607.1z"/>
				<path class="st2" d="M301.3,578.4l114.4,43.3l162.8-63.2l-165.9-48.6l-163.9,48.6l49.6,18.8l0,0V620c-2.4,2.3-4.1,10.3-4.1,19.8
					c0,11.3,2.5,20.5,5.6,20.5s5.6-9.2,5.6-20.5c0-9.2-1.6-17-3.9-19.6L301.3,578.4L301.3,578.4z M338.8,608.1v61.4l75.8,30.7
					l76.8-30.7v-61.4l-75.8,28.7L338.8,608.1z"/>
				<path class="st2" d="M302.3,579.5l114.4,43.3l162.8-63.2l-165.9-48.6l-163.9,48.6l49.6,18.8l0,0v42.7
					c-2.4,2.3-4.1,10.3-4.1,19.8c0,11.3,2.5,20.5,5.6,20.5s5.6-9.2,5.6-20.5c0-9.2-1.6-17-3.9-19.6L302.3,579.5L302.3,579.5
					L302.3,579.5z M339.8,609.2v61.4l75.8,30.7l76.8-30.7v-61.4l-75.8,28.7L339.8,609.2z"/>
				<path class="st2" d="M303.4,580.5l114.4,43.3l162.8-63.2l-165.9-48.6l-163.9,48.6l49.6,18.8l0,0v42.7
					c-2.4,2.3-4.1,10.3-4.1,19.8c0,11.3,2.5,20.5,5.6,20.5s5.6-9.2,5.6-20.5c0-9.2-1.6-17-3.9-19.6L303.4,580.5L303.4,580.5z
					 M340.9,610.3v61.4l75.8,30.7l76.8-30.7v-61.4l-75.8,28.7L340.9,610.3z"/>
				<path class="st2" d="M304.4,581.6l114.4,43.3l162.8-63.2L415.7,513l-163.9,48.6l49.6,18.8l0,0v42.7c-2.4,2.3-4.1,10.3-4.1,19.8
					c0,11.3,2.5,20.5,5.6,20.5s5.6-9.2,5.6-20.5c0-9.2-1.6-17-3.9-19.6L304.4,581.6L304.4,581.6z M341.9,611.3v61.4l75.8,30.7
					l76.8-30.7v-61.4L418.8,640L341.9,611.3z"/>
				<path class="st2" d="M305.5,582.6L419.9,626l162.8-63.2l-165.9-48.6l-163.9,48.6l49.6,18.8l0,0v42.7c-2.4,2.3-4.1,10.3-4.1,19.8
					c0,11.3,2.5,20.5,5.6,20.5s5.6-9.2,5.6-20.5c0-9.2-1.6-17-3.9-19.6L305.5,582.6L305.5,582.6L305.5,582.6z M343,612.4v61.4
					l75.8,30.7l76.8-30.7v-61.4l-75.8,28.7L343,612.4z"/>
				<path class="st2" d="M306.6,583.7L420.9,627l162.8-63.2l-165.9-48.6L254,563.8l49.6,18.8l0,0v42.7c-2.4,2.3-4.1,10.3-4.1,19.8
					c0,11.3,2.5,20.5,5.6,20.5s5.6-9.2,5.6-20.5c0-9.2-1.6-17-3.9-19.6L306.6,583.7L306.6,583.7L306.6,583.7z M344.1,613.5v61.4
					l75.8,30.7l76.8-30.7v-61.4l-75.8,28.7L344.1,613.5z"/>
				<path class="st2" d="M307.6,584.8L422,628.1l162.8-63.2l-165.9-48.6L255,564.8l49.6,18.8l0,0v42.7c-2.4,2.3-4.1,10.3-4.1,19.8
					c0,11.3,2.5,20.5,5.6,20.5c3.1,0,5.6-9.2,5.6-20.5c0-9.2-1.6-17-3.9-19.6L307.6,584.8L307.6,584.8z M345.1,614.5V676l75.8,30.7
					l76.8-30.7v-61.4l-75.8,28.7L345.1,614.5z"/>
				<path class="st2" d="M308.7,585.8L423,629.1l162.8-63.2L420,517.3l-163.9,48.6l49.6,18.8l0,0v42.7c-2.4,2.3-4.1,10.3-4.1,19.8
					c0,11.3,2.5,20.5,5.6,20.5c3.1,0,5.6-9.2,5.6-20.5c0-9.2-1.6-17-3.9-19.6L308.7,585.8L308.7,585.8L308.7,585.8z M346.2,615.6
					V677l75.8,30.7l76.8-30.7v-61.4L423,644.3L346.2,615.6z"/>
				<path class="st2" d="M309.8,586.9l114.4,43.3L586.9,567L421,518.3L257.2,567l49.6,18.8l0,0v42.7c-2.4,2.3-4.1,10.3-4.1,19.8
					c0,11.3,2.5,20.5,5.6,20.5s5.6-9.2,5.6-20.5c0-9.2-1.6-17-3.9-19.6L309.8,586.9L309.8,586.9z M347.3,616.6v61.4l75.8,30.7
					l76.8-30.7v-61.4l-75.8,28.7L347.3,616.6z"/>
				<path class="st2" d="M310.8,587.9l114.4,43.3L588,568l-165.9-48.6L258.2,568l49.6,18.8l0,0v42.7c-2.4,2.3-4.1,10.3-4.1,19.8
					c0,11.3,2.5,20.5,5.6,20.5s5.6-9.2,5.6-20.5c0-9.2-1.6-17-3.9-19.6V587.9z M348.3,617.7v61.4l75.8,30.7l76.8-30.7v-61.4
					l-75.8,28.7L348.3,617.7z"/>
				<path class="st2" d="M311.9,589l114.4,43.3L589,569.1l-165.9-48.6l-163.9,48.6l49.6,18.8l0,0v42.7c-2.4,2.3-4.1,10.3-4.1,19.8
					c0,11.3,2.5,20.5,5.6,20.5s5.6-9.2,5.6-20.5c0-9.2-1.6-17-3.9-19.6L311.9,589L311.9,589L311.9,589z M349.4,618.8v61.4l75.8,30.7
					l76.8-30.7v-61.4l-75.8,28.7L349.4,618.8z"/>
				<path class="st2" d="M312.9,590.1l114.4,43.3l162.8-63.2l-165.9-48.6l-163.9,48.6l49.6,18.8l0,0v42.7
					c-2.4,2.3-4.1,10.3-4.1,19.8c0,11.3,2.5,20.5,5.6,20.5s5.6-9.2,5.6-20.5c0-9.2-1.6-17-3.9-19.6L312.9,590.1L312.9,590.1z
					 M350.4,619.8v61.4l75.8,30.7l76.8-30.7v-61.4l-75.8,28.7L350.4,619.8z"/>
				<path class="st2" d="M314,591.1l114.4,43.3l162.8-63.2l-165.9-48.6l-163.9,48.6L311,590l0,0v42.7c-2.4,2.3-4.1,10.3-4.1,19.8
					c0,11.3,2.5,20.5,5.6,20.5s5.6-9.2,5.6-20.5c0-9.2-1.6-17-3.9-19.6L314,591.1L314,591.1L314,591.1z M351.5,620.9v61.4l75.8,30.7
					l76.8-30.7v-61.4l-75.8,28.7L351.5,620.9z"/>
				<path class="st2" d="M315.1,592.2l114.4,43.3l162.8-63.2l-165.9-48.6l-163.9,48.6L312,591l0,0v42.7c-2.4,2.3-4.1,10.3-4.1,19.8
					c0,11.3,2.5,20.5,5.6,20.5s5.6-9.2,5.6-20.5c0-9.2-1.6-17-3.9-19.6L315.1,592.2L315.1,592.2L315.1,592.2z M352.6,621.9v61.4
					l75.8,30.7l76.8-30.7v-61.4l-75.8,28.7L352.6,621.9z"/>
				<path class="st2" d="M316.1,593.3l114.4,43.3l162.8-63.2l-165.9-48.6l-163.9,48.6l49.6,18.8l0,0v42.7
					c-2.4,2.3-4.1,10.3-4.1,19.8c0,11.3,2.5,20.5,5.6,20.5s5.6-9.2,5.6-20.5c0-9.2-1.6-17-3.9-19.6V593.3z M353.6,623v61.4
					l75.8,30.7l76.8-30.7V623l-75.8,28.7L353.6,623z"/>
				<path class="st2" d="M317.2,594.3l114.4,43.3l162.8-63.2l-165.9-48.6l-163.9,48.6l49.6,18.8l0,0v42.7
					c-2.4,2.3-4.1,10.3-4.1,19.8c0,11.3,2.5,20.5,5.6,20.5s5.6-9.2,5.6-20.5c0-9.2-1.6-17-3.9-19.6L317.2,594.3L317.2,594.3
					L317.2,594.3z M354.7,624.1v61.4l75.8,30.7l76.8-30.7v-61.4l-75.8,28.7L354.7,624.1z"/>
				<path class="st2" d="M318.2,595.4l114.4,43.3l162.8-63.2l-165.9-48.6l-163.9,48.6l49.6,18.8l0,0V637c-2.4,2.3-4.1,10.3-4.1,19.8
					c0,11.3,2.5,20.5,5.6,20.5s5.6-9.2,5.6-20.5c0-9.2-1.6-17-3.9-19.6L318.2,595.4L318.2,595.4z M355.7,625.1v61.4l75.8,30.7
					l76.8-30.7v-61.4l-75.8,28.7L355.7,625.1z"/>
				<path class="st2" d="M319.3,596.4l114.4,43.3l162.8-63.2l-165.9-48.6l-163.9,48.6l49.6,18.8l0,0V638c-2.4,2.3-4.1,10.3-4.1,19.8
					c0,11.3,2.5,20.5,5.6,20.5s5.6-9.2,5.6-20.5c0-9.2-1.6-17-3.9-19.6V596.4z M356.8,626.2v61.4l75.8,30.7l76.8-30.7v-61.4
					l-75.8,28.7L356.8,626.2z"/>
				<path class="st2" d="M320.4,597.5l114.4,43.3l162.8-63.2l-165.9-48.6l-163.9,48.6l49.6,18.8l0,0v42.7
					c-2.4,2.3-4.1,10.3-4.1,19.8c0,11.3,2.5,20.5,5.6,20.5s5.6-9.2,5.6-20.5c0-9.2-1.6-17-3.9-19.6L320.4,597.5L320.4,597.5
					L320.4,597.5z M357.9,627.3v61.4l75.8,30.7l76.8-30.7v-61.4l-75.8,28.7L357.9,627.3z"/>
				<path class="st2" d="M321.4,598.6l114.4,43.3l162.8-63.2L432.7,530l-163.9,48.6l49.6,18.8l0,0v42.7c-2.4,2.3-4.1,10.3-4.1,19.8
					c0,11.3,2.5,20.5,5.6,20.5s5.6-9.2,5.6-20.5c0-9.2-1.6-17-3.9-19.6L321.4,598.6L321.4,598.6z M358.9,628.3v61.4l75.8,30.7
					l76.8-30.7v-61.4L435.7,657L358.9,628.3z"/>
				<path class="st2" d="M322.5,599.6l114.4,43.3l162.8-63.2l-165.9-48.6l-163.9,48.6l49.6,18.8l0,0v42.7
					c-2.4,2.3-4.1,10.3-4.1,19.8c0,11.3,2.5,20.5,5.6,20.5s5.6-9.2,5.6-20.5c0-9.2-1.6-17-3.9-19.6L322.5,599.6L322.5,599.6z
					 M360,629.4v61.4l75.8,30.7l76.8-30.7v-61.4l-75.8,28.7L360,629.4z"/>
				<path class="st2" d="M323.6,600.7L437.9,644l162.8-63.2l-165.9-48.6L271,580.8l49.6,18.8l0,0v42.7c-2.4,2.3-4.1,10.3-4.1,19.8
					c0,11.3,2.5,20.5,5.6,20.5s5.6-9.2,5.6-20.5c0-9.2-1.6-17-3.9-19.6L323.6,600.7L323.6,600.7z M361.1,630.4v61.4l75.8,30.7
					l76.8-30.7v-61.4l-75.8,28.7L361.1,630.4z"/>
				<path class="st2" d="M324.6,601.7L439,645.1l162.8-63.2l-165.9-48.6L272,581.8l49.6,18.8l0,0v42.7c-2.4,2.3-4.1,10.3-4.1,19.8
					c0,11.3,2.5,20.5,5.6,20.5s5.6-9.2,5.6-20.5c0-9.2-1.6-17-3.9-19.6L324.6,601.7L324.6,601.7z M362.1,631.5v61.4l75.8,30.7
					l76.8-30.7v-61.4l-75.8,28.7L362.1,631.5z"/>
				<path class="st2" d="M325.7,602.8L440,646.1l162.8-63.2L437,534.2l-163.9,48.6l49.6,18.8l0,0v42.7c-2.4,2.3-4.1,10.3-4.1,19.8
					c0,11.3,2.5,20.5,5.6,20.5c3.1,0,5.6-9.2,5.6-20.5c0-9.2-1.6-17-3.9-19.6L325.7,602.8L325.7,602.8z M363.2,632.6V694l75.8,30.7
					l76.8-30.7v-61.4L440,661.2L363.2,632.6z"/>
				<path class="st2" d="M326.7,603.9l114.4,43.3l162.8-63.2L438,535.3l-163.9,48.6l49.6,18.8l0,0v42.7c-2.4,2.3-4.1,10.3-4.1,19.8
					c0,11.3,2.5,20.5,5.6,20.5s5.6-9.2,5.6-20.5c0-9.2-1.6-17-3.9-19.6L326.7,603.9L326.7,603.9L326.7,603.9z M364.2,633.6v61.4
					l75.8,30.7l76.8-30.7v-61.4L441,662.3L364.2,633.6z"/>
				<path class="st2" d="M327.8,604.9l114.4,43.3L605,585l-165.9-48.6L275.2,585l49.6,18.8l0,0v42.7c-2.4,2.3-4.1,10.3-4.1,19.8
					c0,11.3,2.5,20.5,5.6,20.5s5.6-9.2,5.6-20.5c0-9.2-1.6-17-3.9-19.6L327.8,604.9L327.8,604.9z M365.3,634.7v61.4l75.8,30.7
					l76.8-30.7v-61.4l-75.8,28.7L365.3,634.7z"/>
				<path class="st2" d="M328.9,606l114.4,43.3L606,586.1l-165.9-48.6l-163.9,48.6l49.6,18.8l0,0v42.7c-2.4,2.3-4.1,10.3-4.1,19.8
					c0,11.3,2.5,20.5,5.6,20.5s5.6-9.2,5.6-20.5c0-9.2-1.6-17-3.9-19.6L328.9,606L328.9,606z M366.4,635.7v61.4l75.8,30.7l76.8-30.7
					v-61.4l-75.8,28.7L366.4,635.7z"/>
				<path class="st2" d="M329.9,607.1l114.4,43.3l162.8-63.2l-165.9-48.6l-163.9,48.6l49.6,18.8l0,0v42.7
					c-2.4,2.3-4.1,10.3-4.1,19.8c0,11.3,2.5,20.5,5.6,20.5s5.6-9.2,5.6-20.5c0-9.2-1.6-17-3.9-19.6L329.9,607.1L329.9,607.1z
					 M367.4,636.8v61.4l75.8,30.7l76.8-30.7v-61.4l-75.8,28.7L367.4,636.8z"/>
				<path class="st2" d="M331,608.1l114.4,43.3l162.8-63.2l-165.9-48.6l-163.9,48.6L328,607l0,0v42.7c-2.4,2.3-4.1,10.3-4.1,19.8
					c0,11.3,2.5,20.5,5.6,20.5s5.6-9.2,5.6-20.5c0-9.2-1.6-17-3.9-19.6V608.1z M368.5,637.9v61.4l75.8,30.7l76.8-30.7v-61.4
					l-75.8,28.7L368.5,637.9z"/>
				<path class="st2" d="M332,609.2l114.4,43.3l162.8-63.2l-165.9-48.6l-163.9,48.6L329,608l0,0v42.7c-2.4,2.3-4.1,10.3-4.1,19.8
					c0,11.3,2.5,20.5,5.6,20.5c3.1,0,5.6-9.2,5.6-20.5c0-9.2-1.6-17-3.9-19.6L332,609.2L332,609.2z M369.5,638.9v61.4l75.8,30.7
					l76.8-30.7v-61.4l-75.8,28.7L369.5,638.9z"/>
				<path class="st2" d="M333.1,610.2l114.4,43.3l162.8-63.2l-165.9-48.6l-163.9,48.6l49.6,18.8l0,0v42.7
					c-2.4,2.3-4.1,10.3-4.1,19.8c0,11.3,2.5,20.5,5.6,20.5s5.6-9.2,5.6-20.5c0-9.2-1.6-17-3.9-19.6L333.1,610.2L333.1,610.2
					L333.1,610.2z M370.6,640v61.4l75.8,30.7l76.8-30.7V640l-75.8,28.7L370.6,640z"/>
				<path class="st2" d="M334.2,611.3l114.4,43.3l162.8-63.2l-165.9-48.6l-163.9,48.6l49.6,18.8l0,0v42.7
					c-2.4,2.3-4.1,10.3-4.1,19.8c0,11.3,2.5,20.5,5.6,20.5s5.6-9.2,5.6-20.5c0-9.2-1.6-17-3.9-19.6L334.2,611.3L334.2,611.3z
					 M371.7,641.1v61.4l75.8,30.7l76.8-30.7v-61.4l-75.8,28.7L371.7,641.1z"/>
				<path class="st2" d="M335.2,612.4l114.4,43.3l162.8-63.2l-165.9-48.6l-163.9,48.6l49.6,18.8l0,0V654c-2.4,2.3-4.1,10.3-4.1,19.8
					c0,11.3,2.5,20.5,5.6,20.5s5.6-9.2,5.6-20.5c0-9.2-1.6-17-3.9-19.6L335.2,612.4L335.2,612.4L335.2,612.4z M372.7,642.1v61.4
					l75.8,30.7l76.8-30.7v-61.4l-75.8,28.7L372.7,642.1z"/>
				<path class="st2" d="M336.3,613.4l114.4,43.3l162.8-63.2l-165.9-48.6l-163.9,48.6l49.6,18.8l0,0V655c-2.4,2.3-4.1,10.3-4.1,19.8
					c0,11.3,2.5,20.5,5.6,20.5s5.6-9.2,5.6-20.5c0-9.2-1.6-17-3.9-19.6L336.3,613.4L336.3,613.4z M373.8,643.2v61.4l75.8,30.7
					l76.8-30.7v-61.4l-75.8,28.7L373.8,643.2z"/>
				<path class="st2" d="M337.4,614.5l114.4,43.3l162.8-63.2l-165.9-48.6l-163.9,48.6l49.6,18.8l0,0v42.7
					c-2.4,2.3-4.1,10.3-4.1,19.8c0,11.3,2.5,20.5,5.6,20.5s5.6-9.2,5.6-20.5c0-9.2-1.6-17-3.9-19.6L337.4,614.5L337.4,614.5z
					 M374.9,644.2v61.4l75.8,30.7l76.8-30.7v-61.4l-75.8,28.7L374.9,644.2z"/>
				<path class="st2" d="M338.4,615.5l114.4,43.3l162.8-63.2L449.7,547l-163.9,48.6l49.6,18.8l0,0v42.7c-2.4,2.3-4.1,10.3-4.1,19.8
					c0,11.3,2.5,20.5,5.6,20.5s5.6-9.2,5.6-20.5c0-9.2-1.6-17-3.9-19.6L338.4,615.5L338.4,615.5L338.4,615.5z M375.9,645.3v61.4
					l75.8,30.7l76.8-30.7v-61.4L452.7,674L375.9,645.3z"/>
				<path class="st2" d="M339.5,616.6l114.4,43.3l162.8-63.2L450.8,548l-163.9,48.6l49.6,18.8l0,0v42.7c-2.4,2.3-4.1,10.3-4.1,19.8
					c0,11.3,2.5,20.5,5.6,20.5s5.6-9.2,5.6-20.5c0-9.2-1.6-17-3.9-19.6L339.5,616.6L339.5,616.6z M377,646.4v61.4l75.8,30.7
					l76.8-30.7v-61.4L453.8,675L377,646.4z"/>
				<path class="st2" d="M340.5,617.7L454.9,661l162.8-63.2l-165.9-48.6L288,597.7l49.6,18.8l0,0v42.7c-2.4,2.3-4.1,10.3-4.1,19.8
					c0,11.3,2.5,20.5,5.6,20.5s5.6-9.2,5.6-20.5c0-9.2-1.6-17-3.9-19.6V617.7z M378,647.4v61.4l75.8,30.7l76.8-30.7v-61.4
					l-75.8,28.7L378,647.4z"/>
				<path class="st2" d="M341.6,618.7L456,662l162.8-63.2l-165.9-48.6L289,598.8l49.6,18.8l0,0v42.7c-2.4,2.3-4.1,10.3-4.1,19.8
					c0,11.3,2.5,20.5,5.6,20.5s5.6-9.2,5.6-20.5c0-9.2-1.6-17-3.9-19.6L341.6,618.7L341.6,618.7L341.6,618.7z M379.1,648.5v61.4
					l75.8,30.7l76.8-30.7v-61.4l-75.8,28.7L379.1,648.5z"/>
				<path class="st2" d="M342.7,619.8L457,663.1l162.8-63.2l-165.9-48.6l-163.9,48.6l49.6,18.8l0,0v42.7c-2.4,2.3-4.1,10.3-4.1,19.8
					c0,11.3,2.5,20.5,5.6,20.5c3.1,0,5.6-9.2,5.6-20.5c0-9.2-1.6-17-3.9-19.6V619.8z M380.2,649.5V711l75.8,30.7l76.8-30.7v-61.4
					L457,678.2L380.2,649.5z"/>
				<path class="st2" d="M343.7,620.9l114.4,43.3l162.8-63.2L455,552.3l-163.9,48.6l49.6,18.8l0,0v42.7c-2.4,2.3-4.1,10.3-4.1,19.8
					c0,11.3,2.5,20.5,5.6,20.5s5.6-9.2,5.6-20.5c0-9.2-1.6-17-3.9-19.6L343.7,620.9L343.7,620.9L343.7,620.9z M381.2,650.6V712
					l75.8,30.7l76.8-30.7v-61.4L458,679.3L381.2,650.6z"/>
				<path class="st2" d="M344.8,621.9l114.4,43.3L621.9,602l-165.9-48.6L292.2,602l49.6,18.8l0,0v42.7c-2.4,2.3-4.1,10.3-4.1,19.8
					c0,11.3,2.5,20.5,5.6,20.5s5.6-9.2,5.6-20.5c0-9.2-1.6-17-3.9-19.6L344.8,621.9L344.8,621.9z M382.3,651.7v61.4l75.8,30.7
					l76.8-30.7v-61.4l-75.8,28.7L382.3,651.7z"/>
				<path class="st2" d="M345.8,623l114.4,43.3L623,603l-165.9-48.6L293.3,603l49.6,18.8l0,0v42.7c-2.4,2.3-4.1,10.3-4.1,19.8
					c0,11.3,2.5,20.5,5.6,20.5c3.1,0,5.6-9.2,5.6-20.5c0-9.2-1.6-17-3.9-19.6L345.8,623L345.8,623z M383.3,652.7v61.4l75.8,30.7
					l76.8-30.7v-61.4l-75.8,28.7L383.3,652.7z"/>
				<path class="st2" d="M346.9,624l114.4,43.3l162.8-63.2l-165.9-48.6l-163.9,48.6l49.6,18.8l0,0v42.7c-2.4,2.3-4.1,10.3-4.1,19.8
					c0,11.3,2.5,20.5,5.6,20.5s5.6-9.2,5.6-20.5c0-9.2-1.6-17-3.9-19.6L346.9,624L346.9,624L346.9,624z M384.4,653.8v61.4l75.8,30.7
					l76.8-30.7v-61.4l-75.8,28.7L384.4,653.8z"/>
				<path class="st2" d="M348,625.1l114.4,43.3l162.8-63.2l-165.9-48.6l-163.9,48.6l49.6,18.8l0,0v42.7c-2.4,2.3-4.1,10.3-4.1,19.8
					c0,11.3,2.5,20.5,5.6,20.5s5.6-9.2,5.6-20.5c0-9.2-1.6-17-3.9-19.6L348,625.1L348,625.1L348,625.1z M385.5,654.9v61.4l75.8,30.7
					l76.8-30.7v-61.4l-75.8,28.7L385.5,654.9z"/>
				<path class="st2" d="M349,626.2l114.4,43.3l162.8-63.2l-165.9-48.6l-163.9,48.6L346,625l0,0v42.7c-2.4,2.3-4.1,10.3-4.1,19.8
					c0,11.3,2.5,20.5,5.6,20.5s5.6-9.2,5.6-20.5c0-9.2-1.6-17-3.9-19.6L349,626.2L349,626.2z M386.5,655.9v61.4l75.8,30.7l76.8-30.7
					v-61.4l-75.8,28.7L386.5,655.9z"/>
				<path class="st2" d="M350.1,627.2l114.4,43.3l162.8-63.2l-165.9-48.6l-163.9,48.6l49.6,18.8l0,0v42.7
					c-2.4,2.3-4.1,10.3-4.1,19.8c0,11.3,2.5,20.5,5.6,20.5c3.1,0,5.6-9.2,5.6-20.5c0-9.2-1.6-17-3.9-19.6L350.1,627.2L350.1,627.2z
					 M387.6,657v61.4l75.8,30.7l76.8-30.7V657l-75.8,28.7L387.6,657z"/>
				<path class="st2" d="M351.2,628.3l114.4,43.3l162.8-63.2l-165.9-48.6l-163.9,48.6l49.6,18.8l0,0v42.7
					c-2.4,2.3-4.1,10.3-4.1,19.8c0,11.3,2.5,20.5,5.6,20.5s5.6-9.2,5.6-20.5c0-9.2-1.6-17-3.9-19.6L351.2,628.3L351.2,628.3z
					 M388.7,658v61.4l75.8,30.7l76.8-30.7V658l-75.8,28.7L388.7,658z"/>
				<path class="st2" d="M352.2,629.3l114.4,43.3l162.8-63.2l-165.9-48.6l-163.9,48.6l49.6,18.8l0,0V671c-2.4,2.3-4.1,10.3-4.1,19.8
					c0,11.3,2.5,20.5,5.6,20.5s5.6-9.2,5.6-20.5c0-9.2-1.6-17-3.9-19.6V629.3z M389.7,659.1v61.4l75.8,30.7l76.8-30.7v-61.4
					l-75.8,28.7L389.7,659.1z"/>
				<path class="st2" d="M353.3,630.4l114.4,43.3l162.8-63.2l-165.9-48.6l-163.9,48.6l49.6,18.8l0,0V672c-2.4,2.3-4.1,10.3-4.1,19.8
					c0,11.3,2.5,20.5,5.6,20.5s5.6-9.2,5.6-20.5c0-9.2-1.6-17-3.9-19.6L353.3,630.4L353.3,630.4z M390.8,660.2v61.4l75.8,30.7
					l76.8-30.7v-61.4l-75.8,28.7L390.8,660.2z"/>
				<path class="st2" d="M354.3,631.5l114.4,43.3l162.8-63.2l-165.9-48.6l-163.9,48.6l49.6,18.8l0,0v42.7
					c-2.4,2.3-4.1,10.3-4.1,19.8c0,11.3,2.5,20.5,5.6,20.5c3.1,0,5.6-9.2,5.6-20.5c0-9.2-1.6-17-3.9-19.6V631.5z M391.8,661.2v61.4
					l75.8,30.7l76.8-30.7v-61.4l-75.8,28.7L391.8,661.2z"/>
				<path class="st2" d="M355.4,632.5l114.4,43.3l162.8-63.2L466.7,564l-163.9,48.6l49.6,18.8l0,0v42.7c-2.4,2.3-4.1,10.3-4.1,19.8
					c0,11.3,2.5,20.5,5.6,20.5s5.6-9.2,5.6-20.5c0-9.2-1.6-17-3.9-19.6L355.4,632.5L355.4,632.5z M392.9,662.3v61.4l75.8,30.7
					l76.8-30.7v-61.4L469.7,691L392.9,662.3z"/>
				<path class="st2" d="M356.5,633.6l114.4,43.3l162.8-63.2L467.7,565l-163.9,48.6l49.6,18.8l0,0v42.7c-2.4,2.3-4.1,10.3-4.1,19.8
					c0,11.3,2.5,20.5,5.6,20.5s5.6-9.2,5.6-20.5c0-9.2-1.6-17-3.9-19.6L356.5,633.6L356.5,633.6z M394,663.3v61.4l75.8,30.7
					l76.8-30.7v-61.4L470.8,692L394,663.3z"/>
				<path class="st2" d="M357.5,634.7L471.9,678l162.8-63.2l-165.9-48.6l-163.9,48.6l49.6,18.8l0,0v42.7c-2.4,2.3-4.1,10.3-4.1,19.8
					c0,11.3,2.5,20.5,5.6,20.5s5.6-9.2,5.6-20.5c0-9.2-1.6-17-3.9-19.6V634.7z M395,664.4v61.4l75.8,30.7l76.8-30.7v-61.4
					l-75.8,28.7L395,664.4z"/>
				<path class="st2" d="M358.6,635.7L472.9,679l162.8-63.2l-165.9-48.6L306,615.8l49.6,18.8l0,0v42.7c-2.4,2.3-4.1,10.3-4.1,19.8
					c0,11.3,2.5,20.5,5.6,20.5s5.6-9.2,5.6-20.5c0-9.2-1.6-17-3.9-19.6L358.6,635.7L358.6,635.7L358.6,635.7z M396.1,665.5v61.4
					l75.8,30.7l76.8-30.7v-61.4l-75.8,28.7L396.1,665.5z"/>
				<path id="_x31_033-graduation_cap_1_" class="st2" d="M359.6,636.8L474,680.1l162.8-63.2l-165.9-48.6l-163.9,48.6l49.6,18.8l0,0
					v42.7c-2.4,2.3-4.1,10.3-4.1,19.8c0,11.3,2.5,20.5,5.6,20.5s5.6-9.2,5.6-20.5c0-9.2-1.6-17-3.9-19.6L359.6,636.8L359.6,636.8z
					 M397.1,666.5V728l75.8,30.7l76.8-30.7v-61.4L474,695.2L397.1,666.5z"/>
			</g>
		</g>
	</g>
	<g>
		<g>
			<defs>
				<circle id="SVGID_5_" cx="207" cy="397" r="292.5"/>
			</defs>
			<clipPath id="SVGID_6_">
				<use xlink:href="#SVGID_5_"  style="overflow:visible;"/>
			</clipPath>
			<g class="st3">
				<path class="st4" d="M93.2,370.3l114.4,43.3l162.8-63.2l-165.9-48.6L40.6,350.4l49.6,18.8l0,0v42.7c-2.4,2.3-4.1,10.3-4.1,19.8
					c0,11.3,2.5,20.5,5.6,20.5c3.1,0,5.6-9.2,5.6-20.5c0-9.2-1.6-17-3.9-19.6L93.2,370.3L93.2,370.3L93.2,370.3z"/>
				<path class="st5" d="M93.2,370.3l-3-1.2l0,0v42.7c-2.4,2.3-4.1,10.3-4.1,19.8c0,11.3,2.5,20.5,5.6,20.5c3.1,0,5.6-9.2,5.6-20.5
					c0-9.2-1.6-17-3.9-19.6L93.2,370.3L93.2,370.3z"/>
				<polygon class="st6" points="130.7,400.1 130.7,461.5 206.5,492.2 283.3,461.5 283.3,400.1 207.5,428.8 				"/>
			</g>
		</g>
	</g>
</g>
</svg>
